<svg width="24" height="24" viewBox="0 0 24 24" fill="none" xmlns="http://www.w3.org/2000/svg">
<path d="M13.2285 0.922059C13.0575 0.781059 12.831 0.722559 12.612 0.763059L0.612 3.01306C0.2565 3.07906 0 3.38806 0 3.74956V20.2496C0 20.6096 0.2565 20.9201 0.612 20.9861L12.612 23.2361C12.657 23.2451 12.705 23.2496 12.75 23.2496C12.9225 23.2496 13.0935 23.1896 13.2285 23.0771C13.401 22.9346 13.5 22.7216 13.5 22.4996V1.49956C13.5 1.27606 13.401 1.06456 13.2285 0.922059ZM12 21.5951L1.5 19.6271V4.37206L12 2.40406V21.5951Z" fill="#2B2E4A"/>
<path d="M23.25 3.74927H12.75C12.336 3.74927 12 4.08527 12 4.49927C12 4.91327 12.336 5.24927 12.75 5.24927H22.5V18.7493H12.75C12.336 18.7493 12 19.0853 12 19.4993C12 19.9133 12.336 20.2493 12.75 20.2493H23.25C23.664 20.2493 24 19.9133 24 19.4993V4.49927C24 4.08527 23.664 3.74927 23.25 3.74927Z" fill="#2B2E4A"/>
<path d="M15.75 6.74927H12.75C12.336 6.74927 12 7.08527 12 7.49927C12 7.91327 12.336 8.24927 12.75 8.24927H15.75C16.164 8.24927 16.5 7.91327 16.5 7.49927C16.5 7.08527 16.164 6.74927 15.75 6.74927Z" fill="#2B2E4A"/>
<path d="M15.75 9.74927H12.75C12.336 9.74927 12 10.0853 12 10.4993C12 10.9133 12.336 11.2493 12.75 11.2493H15.75C16.164 11.2493 16.5 10.9133 16.5 10.4993C16.5 10.0853 16.164 9.74927 15.75 9.74927Z" fill="#2B2E4A"/>
<path d="M15.75 12.7493H12.75C12.336 12.7493 12 13.0853 12 13.4993C12 13.9133 12.336 14.2493 12.75 14.2493H15.75C16.164 14.2493 16.5 13.9133 16.5 13.4993C16.5 13.0853 16.164 12.7493 15.75 12.7493Z" fill="#2B2E4A"/>
<path d="M15.75 15.7493H12.75C12.336 15.7493 12 16.0853 12 16.4993C12 16.9133 12.336 17.2493 12.75 17.2493H15.75C16.164 17.2493 16.5 16.9133 16.5 16.4993C16.5 16.0853 16.164 15.7493 15.75 15.7493Z" fill="#2B2E4A"/>
<path d="M20.25 6.74927H18.75C18.336 6.74927 18 7.08527 18 7.49927C18 7.91327 18.336 8.24927 18.75 8.24927H20.25C20.664 8.24927 21 7.91327 21 7.49927C21 7.08527 20.664 6.74927 20.25 6.74927Z" fill="#2B2E4A"/>
<path d="M20.25 9.74927H18.75C18.336 9.74927 18 10.0853 18 10.4993C18 10.9133 18.336 11.2493 18.75 11.2493H20.25C20.664 11.2493 21 10.9133 21 10.4993C21 10.0853 20.664 9.74927 20.25 9.74927Z" fill="#2B2E4A"/>
<path d="M20.25 12.7493H18.75C18.336 12.7493 18 13.0853 18 13.4993C18 13.9133 18.336 14.2493 18.75 14.2493H20.25C20.664 14.2493 21 13.9133 21 13.4993C21 13.0853 20.664 12.7493 20.25 12.7493Z" fill="#2B2E4A"/>
<path d="M20.25 15.7493H18.75C18.336 15.7493 18 16.0853 18 16.4993C18 16.9133 18.336 17.2493 18.75 17.2493H20.25C20.664 17.2493 21 16.9133 21 16.4993C21 16.0853 20.664 15.7493 20.25 15.7493Z" fill="#2B2E4A"/>
<path d="M10.3153 14.5063L5.06529 8.50631C4.78929 8.19281 4.31679 8.16281 4.00629 8.43581C3.69429 8.70881 3.66279 9.18281 3.93579 9.49331L9.18579 15.4933C9.33429 15.6628 9.54129 15.7498 9.74979 15.7498C9.92529 15.7498 10.1008 15.6883 10.2448 15.5638C10.5568 15.2908 10.5883 14.8183 10.3153 14.5063Z" fill="#2B2E4A"/>
<path d="M10.2105 7.65842C9.88352 7.40192 9.41252 7.46342 9.15752 7.78892L3.90752 14.5389C3.65402 14.8659 3.71252 15.3384 4.03952 15.5919C4.17752 15.6984 4.33952 15.7494 4.50002 15.7494C4.72202 15.7494 4.94402 15.6504 5.09102 15.4614L10.341 8.71142C10.596 8.38292 10.5375 7.91192 10.2105 7.65842Z" fill="#2B2E4A"/>
</svg>
