<svg width="193" height="148" viewBox="0 0 193 148" fill="none" xmlns="http://www.w3.org/2000/svg">
<path fill-rule="evenodd" clip-rule="evenodd" d="M60.0459 67.2206C60.7468 74.297 61.4477 81.3737 62.1484 88.45C65.9643 86.2727 69.7802 84.0952 73.5959 81.9179V98.0392V102.277C73.5959 102.652 73.3734 103.94 73.5959 104.264C73.7848 104.54 75.183 104.548 75.5136 104.594C77.671 104.896 79.8338 105.165 81.9995 105.404C87.7074 106.034 93.8164 106.937 99.5462 106.213C104.527 105.583 109.355 103.812 113.905 101.751C115.503 101.027 117.078 100.252 118.624 99.4248C118.952 99.2493 120.142 98.835 120.32 98.4779C120.466 98.1859 120.124 97.1606 120.079 96.8539C119.886 95.5608 119.694 94.2677 119.502 92.9749L116.816 74.9191L121.889 79.9851C122.287 80.382 123.041 81.5088 123.591 81.6847C123.994 81.8137 124.993 81.4144 125.392 81.3378C128.264 80.7842 131.137 80.2304 134.009 79.6771C134.678 79.548 136.187 79.5529 136.751 79.1487C137.055 78.9308 137.069 78.4877 137.176 78.0679C137.877 75.3229 138.577 72.5782 139.278 69.8338C139.404 69.3393 140.108 67.7806 139.929 67.2826C139.865 67.1043 139.554 66.9822 139.364 66.8659C135.029 64.2178 130.693 61.5698 126.358 58.9217C123.983 57.4713 121.608 56.0206 119.233 54.5701C118.238 53.9623 117.016 52.8674 115.889 52.5274C115.189 52.3165 114.171 52.4745 113.446 52.4537C111.975 52.4118 110.504 52.3698 109.032 52.3279C108.802 52.3214 107.995 52.1571 107.801 52.2928C107.639 52.4058 107.706 52.5631 107.653 52.8323C107.524 53.4899 107.523 54.1989 107.459 54.8663C107.408 55.4018 107.51 56.384 107.268 56.8688C107.114 57.1786 107.31 57.0552 107.101 57.205C106.853 57.3833 106.06 57.3259 105.764 57.3601C104.322 57.5277 102.88 57.6951 101.438 57.8626C99.7239 58.0617 97.9904 58.4353 96.268 58.2632C93.6568 58.0025 90.8414 58.0155 88.2773 57.4655C87.611 57.3224 87.371 56.9469 86.8569 56.4337C85.8538 55.4319 84.8607 54.4185 83.8464 53.4274C83.3493 52.9417 83.5622 53.0241 83.0497 53.2082C82.4075 53.439 81.7561 53.9962 81.1749 54.3502C78.9478 55.7067 76.7208 57.0634 74.4935 58.4199L60.8968 66.7022C60.6131 66.875 60.3296 67.0478 60.0459 67.2206Z" fill="#FF5678"/>
<path fill-rule="evenodd" clip-rule="evenodd" d="M190.096 68.1002C187.293 78.7412 181.656 90.3439 170.299 93.7357C167.538 94.5603 164.852 95.1829 161.984 94.8688C161.711 94.8389 161.483 94.8773 161.223 94.8822C160.758 94.8911 161.16 95.0581 160.638 94.8971C160.231 94.7715 159.851 94.4574 159.427 94.3186C158.3 93.9498 157.098 93.8786 155.953 93.5806C153.139 92.8484 150.239 91.9446 147.512 90.935C146.228 90.4598 145.048 89.7977 143.84 89.1609C142.612 88.5138 141.311 88.1117 140.07 87.5182C139.089 87.049 137.408 86.4376 136.718 85.5574C135.982 84.6188 137 82.6208 137.291 81.623C138.28 78.2278 139.458 74.8825 140.201 71.4197C142.768 74.3947 146.331 76.2372 150.02 77.4254C152.021 78.0702 154.08 78.5363 156.162 78.8281C158.052 79.0928 160.09 79.4133 161.985 79.0374C163.415 78.7535 165.21 78.0961 166.232 77.0046C166.596 76.6149 167.033 75.9006 166.829 75.3345C166.57 74.6159 165.814 74.9541 165.406 74.4179C165.05 73.9507 165.106 72.8583 164.992 72.2896C164.791 71.2828 164.515 70.3038 164.179 69.3348C163.525 67.4533 162.711 65.5675 162.516 63.5655C162.346 61.8286 162.742 60.186 163.608 58.6788C164.018 57.9663 165.046 56.0278 166.05 56.1084C167.152 56.1968 165.666 60.8416 165.617 61.7891C165.424 65.545 165.928 69.5471 167.856 72.8391C168.594 74.0996 169.661 75.5673 171.236 75.7235C172.905 75.8887 174.251 74.5758 175.046 73.2472C176.984 70.0058 176.007 65.5579 175.025 62.1608C173.821 57.9926 170.678 55.1198 168.691 51.3764C171.658 51.6746 173.247 53.5595 174.769 55.9508C176.446 58.5835 177.751 61.7443 178.394 64.8075C178.719 66.3553 178.495 67.9093 178.497 69.4723C178.498 69.9915 178.498 71.907 179.344 71.8315C180.249 71.7509 180.559 69.5906 180.692 68.9314C180.997 67.4198 181.327 65.908 181.592 64.3889C182.061 61.7012 182.269 58.9484 182.83 56.2792C182.925 55.8281 183.114 54.5763 183.79 54.9142C184.31 55.1745 184.227 57.1107 184.246 57.5607C184.293 58.6696 184.358 59.7786 184.367 60.8887C184.381 62.534 184.053 64.2372 184.214 65.8725C184.319 66.941 184.892 68.1216 185.603 66.6807C186.308 65.2515 186.452 63.4693 186.845 61.9324C187.258 60.3188 187.684 58.6815 188.56 57.2482C188.804 56.8506 189.065 56.2194 189.605 56.4064C189.998 56.5426 190.288 57.473 190.409 57.8013C190.956 59.2855 190.864 60.9355 190.829 62.4891C190.787 64.393 190.582 66.2544 190.096 68.1002ZM135.441 70.8616C135.292 70.8132 134.655 70.7529 134.498 70.7391C134.313 70.723 134.523 70.3821 134.075 70.479C134.161 70.6933 134.315 70.8362 134.536 70.9078C133.863 71.1355 133.366 70.5732 132.906 70.5009C132.466 70.4317 132.447 70.5009 132.012 70.9659C131.541 70.3917 131.63 70.7498 131.243 70.75C131.102 70.7502 131.096 70.963 130.866 70.9375C130.666 70.9152 130.645 70.6116 130.527 70.5759C129.885 70.3815 129.224 71.3596 128.495 70.5112C128.319 71.394 126.296 70.2882 125.518 70.4433C124.703 70.6056 125.054 70.898 124.395 70.3982C123.767 69.9221 123.942 70.2384 123.212 70.6281C123.229 70.619 122.799 70.9089 122.839 70.9136C122.333 70.8545 122.362 70.3317 121.722 70.3594C121.044 70.3888 120.754 70.9203 120.134 70.2663C119.999 70.756 119.971 70.5451 119.653 70.6685C119.478 70.7101 119.325 70.6641 119.194 70.5308C119.154 70.6654 119.067 70.748 118.932 70.7784C118.585 70.8094 117.935 70.8576 117.621 70.6909C117.149 70.4406 117.528 70.3444 117.201 70.0629C117.054 70.8391 116.733 70.6741 116.055 70.7467C115.538 70.802 115.424 70.6433 114.93 70.5661C114.443 70.4902 113.814 70.679 113.339 70.7594C113.143 70.7929 112.881 70.9295 112.682 70.8815C112.502 70.8382 112.425 70.6987 112.317 70.6621C112.187 70.6183 112.215 70.5042 111.99 70.4489C111.834 70.4112 111.556 70.5567 111.401 70.5819C110.294 70.7616 109.231 70.7634 108.176 70.3281C108.696 71.2418 106.961 70.7485 106.651 70.3701C106.265 70.9759 105.797 70.5482 105.018 70.5955C104.267 70.6411 103.138 70.871 102.834 69.9364C102.774 70.1261 102.348 70.6777 102.179 70.7618C101.687 71.0056 101.628 70.6449 101.171 70.498C100.548 70.298 100.678 70.6777 100.292 70.7547C99.6406 70.8853 99.2884 70.4263 98.7125 70.1824C98.6882 70.5616 98.6757 70.7949 98.3477 71.031C98.0573 69.9737 97.0209 71.1177 97.1988 69.7045C96.8044 69.9612 96.2497 70.1585 96.1374 70.6777C96.7968 70.4962 96.2077 70.9272 96.1801 70.9415C96.093 70.9871 95.7986 70.5739 95.7303 70.5156C95.7115 70.7105 95.693 70.9056 95.6745 71.1005C95.4118 70.9692 95.1651 70.7339 94.9519 70.6161C94.7597 70.51 95.035 70.2891 94.7104 70.2739C94.5394 70.2656 94.3608 70.6362 94.1814 70.6679C93.9068 70.7159 94.0387 70.3221 93.9238 70.3353C93.7488 70.3554 93.4635 70.6114 93.3311 70.6065C92.8972 70.5904 93.1909 70.3884 92.8597 70.2958C92.2679 70.1301 92.3059 70.5172 91.8804 70.6567C90.907 70.9764 91.0047 69.5058 90.0145 70.4866C89.7775 70.7212 89.625 71.0837 89.3005 71.0634C88.6284 71.0212 88.8643 70.2246 89.0009 69.8344C89.1422 69.904 86.5453 71.238 86.5658 71.1857C86.5821 70.8659 86.9906 70.6192 86.6256 70.335C86.3272 70.9755 86.0131 70.9866 85.3247 71.1058C84.9901 71.1639 84.9243 71.2413 84.5662 71.1022C84.3381 71.0139 84.185 70.65 83.9582 70.6299C83.9888 70.6328 83.5725 70.9496 83.5091 70.9779C83.1334 71.1473 82.8957 70.9554 82.5307 71.025C82.2193 71.0844 82.0967 71.3491 81.7871 71.2766C81.374 71.1799 81.6166 70.6864 81.0481 70.8241C80.8537 70.8712 80.7369 71.2458 80.4306 71.323C79.9532 71.444 79.3681 71.2185 78.8637 71.3362C78.4632 71.4297 78.1661 71.4692 77.8159 71.4886C77.5331 71.5045 77.6493 71.2844 77.1286 71.5442L76.9078 70.9875C76.6471 71.2221 76.3864 71.4563 76.1257 71.6909C76.0763 71.4806 76.0448 71.2679 76.0317 71.0522C75.6428 71.4418 75.1533 71.5083 74.6305 71.5433C74.0647 71.5813 73.643 71.7045 73.0923 71.8081C72.9182 71.8407 72.4698 71.8929 72.3267 71.8319C72.3477 71.8409 72.0588 71.7208 72.1459 71.7436C72.1084 71.6672 72.0736 71.5895 72.0414 71.5105C71.9928 71.2909 71.8347 71.2813 71.5677 71.4815C71.4296 71.4603 71.1617 71.279 71.024 71.3237C70.6688 71.4389 70.7171 71.7143 70.3633 71.6739C70.1336 71.6476 70.0164 71.3083 69.7773 71.2853C69.4115 71.2502 69.0943 71.6596 68.7646 71.7489C69.767 71.4768 67.4645 71.688 68.1804 71.7067C67.711 71.6945 67.2237 71.6712 66.79 71.8815C66.5502 71.7177 66.8413 71.3882 66.5991 71.2527C66.3795 71.1297 66.3625 71.4545 66.3368 71.4616C66.4755 71.4223 66.4063 71.6987 66.2676 71.7478C65.8357 71.9009 65.49 71.5116 65.4676 71.1255C65.1007 71.6779 64.9975 71.4558 64.4578 71.49C63.9254 71.5237 63.4663 71.8027 62.9337 71.7976C61.8803 71.7875 61.1655 71.4214 60.814 70.481C61.9363 70.6179 63.066 69.896 64.1636 70.0661C64.5243 70.1219 64.7495 70.3929 65.0656 70.3446C65.4549 70.2855 65.7268 69.8607 66.2261 69.8149C67.3273 69.7143 68.4128 69.8123 69.5215 69.6435C70.8459 69.4417 72.2278 69.3223 73.5649 69.4205C74.5982 69.4966 75.4348 69.1015 76.4826 69.0254C77.8373 68.9268 79.2032 68.9093 80.5603 68.8381C81.9546 68.7649 83.455 68.5424 84.8455 68.6138C85.2796 68.6359 85.6533 68.6785 86.0841 68.6526C86.2663 68.6417 86.4388 68.5178 86.6299 68.5364C86.879 68.5605 86.9859 68.8154 87.2442 68.8064C87.683 68.7915 88.1522 68.4299 88.6739 68.4201C89.5317 68.4038 90.3858 68.4058 91.2458 68.3569C92.003 68.3138 92.8141 68.137 93.568 68.1466C94.0997 68.1533 94.2309 68.6062 94.5407 68.6531C95.0979 68.737 97.9163 67.1332 98.1598 68.5727C99.627 67.5685 101.595 68.4187 103.228 68.2301C105.326 67.9877 107.463 68.2038 109.575 68.1174C111.724 68.0296 113.936 68.1109 116.076 68.3136C116.963 68.3975 117.82 68.4763 118.709 68.4254C119.106 68.4026 119.564 68.3015 119.96 68.3928C120.056 68.4151 120.792 68.9283 120.7 68.9431C121.102 68.5826 120.83 68.5297 121.537 68.5111C122.081 68.4968 122.596 68.6145 123.138 68.6466C124.11 68.704 125.089 68.5694 126.059 68.5991C126.869 68.6238 127.661 68.7433 128.475 68.7491C129.352 68.7556 130.389 68.7803 131.024 69.4877C130.956 69.2656 130.89 69.0435 130.822 68.8214C131.802 68.898 132.77 69.2475 133.76 69.0841C133.51 69.3241 133.255 69.5201 133.16 69.8721C133.694 69.8042 134.055 69.4315 134.617 69.4286C135.09 69.4257 135.188 69.6625 135.686 69.3565C135.748 69.7315 135.809 70.1065 135.87 70.4813C136.561 70.3187 136.108 69.804 136.158 69.3399C136.719 69.5085 137.194 69.3149 136.973 70.1221C136.803 70.7444 136.026 71.0511 135.441 70.8616ZM134.471 77.7939C134.23 78.4703 132.148 78.0839 131.656 78.0122C131.019 77.9202 130.291 77.774 129.706 77.7015C129.635 77.6077 129.551 77.5283 129.453 77.4629C129.379 77.5655 129.286 77.6385 129.173 77.6812C128.904 77.7401 128.903 78.0178 128.55 77.9564C128.533 78.3673 128.819 78.1339 129.038 78.283C128.487 78.6524 128.739 78.2272 128.429 78.2339C128.353 78.1252 128.246 78.0825 128.109 78.106C127.935 78.151 127.774 78.2256 127.628 78.3296C127.49 78.4752 127.372 78.4825 127.274 78.3524C127.179 78.2577 127.065 78.1993 126.929 78.1772C126.386 78.2653 126.234 78.5062 125.623 78.4669C124.749 78.4106 123.805 78.6408 122.945 78.5196C122.412 78.4446 121.521 77.6073 121.279 78.4234C120.911 77.8185 120.324 77.4068 119.972 76.7887C121.615 76.6937 123.257 76.5805 124.902 76.5211C126.341 76.4693 127.916 76.6314 129.262 76.5635C130.522 76.4999 131.857 76.3606 133.144 76.2457C134.508 76.1238 134.959 76.4231 134.471 77.7939ZM91.6074 77.8937C92.2041 78.0589 92.7722 77.6845 93.3508 77.8028C93.5421 77.8419 93.9381 78.1901 94.0251 78.197C94.1845 78.2098 94.6528 77.8678 94.8537 77.822C96.1245 77.5327 97.664 77.5635 98.9346 77.7412C99.6078 77.8352 99.7112 77.5272 100.299 77.3776C100.91 77.2218 101.778 77.3417 102.421 77.2988C103.934 77.1975 105.447 77.2696 106.95 77.1588C108.493 77.0452 110.028 76.9838 111.571 76.9044C112.623 76.8503 115.15 76.2506 116.021 77.0312C116.74 77.6747 115.814 78.7921 115.095 79.0473C114.558 79.2374 114.3 78.8363 113.901 78.8747C113.447 78.9183 113.605 79.4551 113.2 78.9571C112.948 79.4524 111.368 79.2412 110.916 79.2741C109.929 79.3453 109.094 79.5433 108.423 78.6229C108.468 78.8881 108.514 79.1537 108.559 79.4192C107.669 78.9433 106.713 79.0955 105.94 79.2616C105.557 79.3437 104.382 79.9114 103.967 79.6665C103.682 79.4982 104.185 79.2102 103.704 79.0665C103.451 78.991 103.016 79.41 102.708 79.389C101.854 79.3303 102.096 78.7566 101.259 79.4868C100.975 79.2412 100.88 78.8238 100.918 78.466C100.309 78.9852 100.36 79.8506 99.2714 79.6921C98.8658 79.6332 98.7913 79.2196 98.5799 79.1433C98.1294 78.9805 98.0783 79.2729 97.6881 79.5044C97.5408 79.5917 97.3611 79.7321 97.1877 79.7497C96.8314 79.7852 96.7749 79.6216 96.7261 79.627C96.489 79.6531 96.1903 79.7736 95.9091 79.6875C95.6566 79.6102 95.5827 79.1647 95.1381 79.2689C94.7124 79.3687 94.7088 79.6578 94.7861 80.0906C94.3662 80.0471 94.1124 79.8134 93.7983 79.56C93.4814 80.2995 92.8139 79.687 92.4447 80.3109C91.9639 79.7368 91.6554 79.8948 91.0588 79.3341C91.0882 79.568 91.1175 79.802 91.1465 80.0361C90.6811 79.9464 90.4739 79.618 90.0766 80.0524C89.6911 79.3343 88.5223 80.3576 87.9219 79.664C87.6542 80.5424 85.8837 80.3323 85.1359 80.3475C84.4731 80.3611 83.9825 80.3069 83.3349 80.4607C82.7628 80.5966 81.9697 80.7377 81.4316 80.6754C81.08 80.6348 80.6956 80.5703 80.2574 80.6181C79.6259 80.6864 79.0804 81.0134 78.4261 80.8587C77.4411 80.6259 76.8373 79.3319 77.9344 78.7636C78.6853 78.3747 80.038 78.5187 80.8644 78.4468C82.2338 78.3278 83.7687 78.0785 85.1399 78.1919C86.2096 78.2803 87.1846 78.0252 88.2759 77.9173C89.0976 77.8363 90.4442 77.6901 90.9802 78.5044C91.1858 78.2667 91.1646 77.7711 91.6074 77.8937ZM76.6156 89.0403C76.4685 88.3079 82.7296 87.9046 83.351 87.8568C84.6557 87.7561 85.964 87.6845 87.2719 87.6512C88.3469 87.624 89.3502 87.8291 90.4255 87.6642C91.4297 87.5102 92.6418 87.1943 93.516 87.9053C93.6445 86.9329 97.4133 87.4066 98.1303 87.4093C101.252 87.4204 104.238 87.4278 107.257 87.2345C108.983 87.124 110.815 86.9753 112.541 87.0617C113.319 87.1008 113.946 87.3082 114.72 87.128C115.225 87.0108 115.769 86.7664 116.252 87.1117C116.817 87.5162 117.058 88.889 116.669 89.462C116.385 89.8794 116.134 89.8332 115.681 89.7609C114.985 89.6502 114.468 89.489 113.758 89.772C113.873 89.7261 113.282 89.858 113.331 89.8542C112.527 89.9142 111.423 90.4761 110.73 89.8285C111.008 89.8772 111.412 89.3814 111.062 89.3406C110.799 89.3102 110.632 89.5919 110.427 89.6863C109.725 90.0091 109.366 89.9082 108.947 89.2309C108.102 89.9624 108.011 89.76 107.64 88.8593C107.354 89.0792 107.293 89.5997 107.068 89.7702C107.034 89.7957 107.173 90.1118 107.01 90.0988C106.86 90.0865 106.81 89.8397 106.695 89.8202C106.621 89.8077 106.582 89.5912 106.511 89.5781C106.435 89.5638 106.356 89.702 106.269 89.6979C106.037 89.687 105.372 90.1812 105.611 89.4877C105.259 89.9352 105.107 89.6499 104.98 89.2426C104.574 89.5515 104.168 89.8602 103.761 90.1689C103.573 89.6437 103.247 89.7868 102.838 89.9703C102.962 89.6055 102.884 89.2604 102.575 89.514C102.396 89.6609 102.276 90.127 102.093 90.325C101.351 89.5738 101.081 89.7798 100.056 89.8776C99.6654 89.9147 99.1792 89.987 98.8299 89.7506C98.5225 89.543 98.3489 88.7809 97.8234 89.3966C97.9406 89.2598 97.7571 90.3116 97.7247 90.4785C97.493 90.3225 97.2962 90.1303 97.1341 89.9026C96.8319 90.5011 96.0381 89.964 95.3879 90.0863C94.364 90.279 93.3079 90.6033 92.4034 89.8412C92.3396 90.0872 91.5987 90.4006 91.5976 90.4102C91.6416 89.9745 91.9164 90.1276 91.3552 90.045C91.2518 90.0299 91.1347 90.2156 91.0371 90.2359C90.7025 90.3051 90.3116 90.2395 89.9744 90.2299C88.5714 90.1895 87.2873 90.5004 85.902 90.6131C85.435 90.6508 84.881 90.7254 84.4426 90.5495C83.991 90.3678 84.0033 90.1618 83.5463 90.2787C83.691 90.2419 83.2608 90.6937 83.2841 90.6767C83.2227 90.7214 82.9664 90.5008 82.8753 90.5174C82.8488 90.6138 82.8222 90.71 82.7956 90.8064C82.6854 90.7928 82.5753 90.7792 82.4653 90.7658C82.1639 90.8062 81.8923 90.5013 81.6092 90.491C81.6612 90.4928 80.8454 90.7966 80.8827 90.8151C80.313 90.531 80.4766 90.6133 79.7541 90.7863C79.071 90.9497 78.3911 90.9116 77.6904 91.0136C75.6522 91.3096 76.8665 90.2881 76.6156 89.0403ZM74.8156 99.2305C74.4323 98.6869 75.452 98.499 75.7779 98.451C76.3134 98.372 77.0241 98.5291 77.381 98.4441C77.9246 98.3148 78.4494 98.0061 79.0612 97.9224C79.8335 97.8168 80.6119 97.7997 81.3874 97.7336C81.6456 97.7113 81.9655 97.6224 82.2168 97.6374C82.5912 97.6599 82.7465 97.8579 83.0488 97.8592C83.5635 97.8619 84.1986 97.5369 84.726 97.4773C85.4015 97.4008 86.0839 97.3648 86.7627 97.3311C88.1929 97.2601 89.6083 97.2896 91.0378 97.288C91.6898 97.2871 93.426 96.6106 93.751 97.3691C94.203 96.7943 95.3624 96.8726 96.0086 96.8559C97.147 96.8266 98.2736 96.7168 99.4112 96.6639C100.385 96.6186 101.473 96.8271 102.43 96.6811C102.957 96.6007 103.132 96.4318 103.729 96.5081C104.173 96.5644 104.85 96.3298 105.232 96.4335C105.212 96.4282 105.707 96.7351 105.553 96.7449C105.723 96.734 105.713 96.853 105.901 96.7999C106.147 96.7304 106.034 96.4204 106.545 96.3103C107.342 96.1385 108.404 96.3373 109.232 96.2931C110.035 96.2505 110.837 96.232 111.642 96.2358C112.012 96.2373 112.469 96.1489 112.829 96.2213C113.006 96.2565 113.381 96.4869 113.53 96.4637C113.954 96.3974 114.17 96.1032 114.743 96.1215C115.392 96.142 115.976 96.1331 116.622 96.0835C117.247 96.0358 117.348 95.9465 117.658 96.4666C117.965 96.9827 118.049 97.6546 117.484 98.0052C117.851 97.9811 118.303 98.4729 117.87 98.745C117.603 98.9133 117.067 98.5336 116.747 98.5608C116.352 98.5947 116.043 98.8032 115.613 98.8162C115.162 98.83 114.704 98.9436 114.259 98.9523C113.795 98.9613 113.445 98.7541 113.005 98.8423C112.618 98.9202 112.577 99.2372 112.112 98.9588C111.88 98.8202 111.841 98.3072 111.525 98.3026C111.102 98.2961 111.271 98.8428 111.027 99.0961C110.962 98.3142 110.358 99.6079 110.119 98.6588C109.897 98.974 109.078 99.4149 108.681 99.1617C108.32 98.9309 108.44 98.4088 108.289 98.0325C108.038 98.7086 107.366 99.4102 107.426 98.1791C107.099 98.5816 106.216 98.518 106.438 99.222C106.171 99.2169 106.108 98.8367 105.884 98.8079C105.691 98.7831 105.537 98.9318 105.507 98.9296C105.614 98.9385 105.191 99.0791 105.184 99.0807C105.47 99.0224 104.358 98.9233 104.548 98.9249C104.29 98.9229 103.974 99.134 103.672 99.1334C103.397 99.1327 103.124 99.0244 102.852 98.9936C102.149 98.9133 102.295 99.0678 101.854 99.2887C101.69 99.3704 101.649 99.5091 101.417 99.4919C101.245 99.4789 101.181 99.2553 101.162 99.2535C100.921 99.2291 101.099 99.1481 100.724 99.1856C100.681 99.2595 100.639 99.3332 100.596 99.4071C100.461 99.58 100.285 99.6231 100.07 99.537C99.5158 99.6557 97.6788 100.171 97.8587 99.2171C97.5772 99.3546 97.2957 99.4923 97.0142 99.63C96.8935 98.8611 95.364 99.8805 95.0225 99.9321C94.584 99.9977 94.5437 99.8296 94.1294 99.7401C94.0546 99.724 93.9048 99.9705 93.7298 99.935C93.2751 99.8437 93.1941 99.7983 93.1162 99.3046C92.7921 99.9106 92.5226 99.6396 91.9347 99.7392C91.8045 99.7613 91.7215 100.017 91.5347 99.9731C91.4001 99.9414 91.3965 99.6954 91.3036 99.6637C91.2201 99.635 91.2326 99.4408 91.1096 99.4133C90.9686 99.3814 90.4875 99.7758 90.3496 99.8367C90.0384 99.9738 89.5273 100.201 89.2235 100.133C88.8478 100.049 89.015 99.7704 88.4842 99.8019C87.6469 99.8508 87.2975 100.564 86.7765 99.4405C86.5415 99.8903 86.5714 100.012 86.1937 100.161C85.9147 100.27 85.208 100.156 84.8406 100.142C83.2716 100.085 81.7289 100.619 80.1728 100.479C79.4889 100.418 78.9121 100.281 78.2219 100.393C77.4967 100.51 76.7873 100.683 76.0515 100.753C75.6774 100.788 74.8957 100.896 74.712 100.418C74.5506 99.9966 75.1531 99.7095 74.8156 99.2305ZM77.8929 116.494C75.8576 117.855 74.172 119.715 72.3033 121.289C70.4298 122.867 68.9429 124.622 67.2581 126.37C65.7002 127.985 64.2689 129.514 62.3857 130.735C61.1939 131.508 60.1307 132.459 58.9066 133.188C57.9896 133.733 56.6005 134.451 57.0478 132.782C57.5063 131.072 58.3528 129.343 59.0878 127.745C60.1329 125.475 61.1858 123.225 62.3165 120.997C62.7415 120.16 62.9792 119.327 63.6531 118.66C64.3864 117.935 64.8998 116.987 65.7027 116.302C69.0804 113.418 74.1707 115.646 77.8929 116.494ZM84.2772 117.471C83.3539 117.955 82.3206 118.075 81.3423 118.395C80.5086 118.668 79.7333 119.153 78.8366 119.189C79.653 118.576 80.3541 117.743 81.2744 117.278C82.3095 116.754 83.249 117.136 84.2772 117.471ZM124.798 121.504C121.403 120.359 118.241 118.67 114.934 117.312C114.363 117.077 109.897 115.606 109.988 114.906C113.117 114.333 116.34 113.349 119.476 114.422C122.33 115.398 124.65 117.738 126.859 119.697C127.436 120.208 131 122.536 130.681 123.277C130.46 123.791 128.743 123.651 128.337 123.545C127.813 123.409 127.512 123.091 127.101 122.742C126.414 122.158 125.654 121.793 124.798 121.504ZM118.53 102.362C119.045 101.887 119.354 101.167 119.847 100.729C120.48 100.166 121.501 100.44 122.193 100.733C124.27 101.61 126.045 103.085 128.108 104C130.395 105.015 132.375 106.371 134.438 107.768C136.323 109.046 138.362 110.103 140.287 111.322C142.248 112.564 144.443 113.372 146.431 114.57C148.454 115.79 150.47 117.014 152.414 118.358C155.881 120.754 159.491 123.215 162.056 126.622C163.374 128.373 164.608 130.36 165.576 132.326C166.455 134.114 167.409 136.596 166.269 138.455C165.175 140.241 163.31 141.648 161.731 142.981C161.133 143.485 160.564 144.098 159.789 144.317C158.846 144.583 157.746 144.509 156.777 144.588C151.593 145.008 146.764 144.611 141.655 143.684C136.73 142.791 131.783 142.29 126.82 141.669C124.02 141.318 121.22 140.91 118.458 140.326C117.277 140.077 116.076 139.789 114.92 139.449C113.911 139.152 113.063 138.499 112.025 138.24C107.622 137.14 102.585 136.72 98.2259 134.87C102.083 133.267 106.182 132.299 110.136 130.967C114.297 129.565 118.361 128.389 122.747 127.99C125.003 127.785 127.023 127.209 129.194 126.606C131.263 126.031 133.423 125.855 135.548 125.597C136.493 125.482 139.19 125.654 139.503 124.419C139.969 122.58 137.319 122.367 136.19 122.532C134.587 122.766 133.266 123.166 132.039 121.851C130.787 120.509 129.57 119.134 128.295 117.809C125.932 115.351 123.495 112.508 120.153 111.405C116.077 110.06 111.349 111.337 107.282 112.102C102.985 112.91 98.696 113.684 94.48 114.858C92.7342 115.344 90.4826 116.416 88.6708 116.244C86.885 116.074 84.8624 115.782 83.1367 115.267C82.3559 115.034 81.7141 114.602 81.0155 114.2C80.107 113.676 79.1114 113.34 78.1473 112.933C76.1977 112.11 74.297 111.352 72.1937 111.029C70.4222 110.757 68.5411 110.595 66.8246 111.216C65.1404 111.825 63.6482 113.066 62.4732 114.391C61.1968 115.83 60.1419 117.444 59.0959 119.052C58.5936 119.824 57.9807 120.498 57.4603 121.252C57.0237 121.886 56.7688 122.59 56.3067 123.206C55.2726 124.585 54.5703 126.348 53.9437 127.951C53.2473 129.731 52.4739 131.849 52.6401 133.786C52.7029 134.518 52.7685 135.488 53.0518 136.167C53.412 137.031 53.9257 137.009 54.6661 137.334C55.9382 137.894 56.2949 139.441 57.9389 139.139C59.4809 138.856 60.8182 137.586 61.9432 136.573C63.4096 135.253 64.8129 133.861 66.2161 132.475C67.6558 131.052 69.0746 129.473 70.22 127.799C70.6709 127.14 71.0224 126.396 71.5553 125.796C72.2338 125.031 72.9957 124.94 73.9174 124.635C81.9751 121.973 90.0719 119.405 98.3814 117.647C100.372 117.226 102.379 116.682 104.335 116.122C106.409 115.527 107.483 116.156 109.195 117.287C112.771 119.652 116.998 121.317 120.98 122.86C122.234 123.346 124.231 123.377 125.211 124.335C119.401 125.22 113.864 126.925 108.26 128.622C105.497 129.458 102.702 130.184 99.9284 130.984C97.1537 131.784 94.4849 132.821 91.7485 133.723C89.0252 134.621 86.1471 134.988 83.3975 135.816C80.5905 136.662 77.7953 137.243 74.914 137.757C72.0048 138.276 69.1159 138.875 66.1967 139.34C64.86 139.553 63.5236 139.773 62.2019 140.066C60.9086 140.353 59.659 141.039 58.3592 141.198C52.5544 141.908 46.8635 143.49 41.0812 144.385C36.7639 145.053 29.2529 145.984 26.4532 141.653C23.638 137.297 27.0919 132.215 30.1736 129.101C32.0889 127.165 34.2409 125.462 36.4988 123.946C38.9153 122.324 41.2404 120.573 43.6574 118.953C49.1271 115.288 55.0583 112.298 60.9347 109.353C63.7553 107.94 66.4806 106.423 69.2244 104.872C70.5863 104.102 71.3398 105.344 72.4164 106.189C73.2631 106.853 74.8178 108.491 76.0024 107.734C76.048 108.006 76.0937 108.279 76.1393 108.552C76.4861 108.394 76.8335 108.236 77.1804 108.077C77.4134 108.688 77.3862 109.068 78.0373 109.389C78.4371 109.586 79.2904 109.824 79.6717 109.476C79.7494 109.718 79.8271 109.959 79.905 110.2C80.2382 110.175 80.3025 109.222 80.3655 108.998C80.9365 109.832 81.7264 110.53 82.7302 110.765C82.7352 110.711 82.5671 110.026 82.5742 110.021C82.8919 109.827 83.2925 110.66 83.4608 110.838C84.0191 111.429 84.3522 111.337 84.9689 110.86C85.0138 110.909 85.2225 111.453 85.2528 111.444C85.3863 111.401 85.6397 110.919 85.6676 110.875C85.629 111.51 86.8547 111.637 87.2875 111.501C87.1904 111.315 87.0933 111.129 86.9964 110.943C88.504 110.742 89.096 112.344 90.5431 112.262C91.613 112.202 90.755 111.968 91.3605 111.51C91.8894 111.11 91.9836 111.985 92.0356 111.958C92.1365 111.852 92.2146 111.73 92.2702 111.593C92.4659 112.343 94.0244 113.016 93.8633 111.783C94.4765 112.028 94.9117 112.435 95.5903 112.521C96.4151 112.626 97.2959 112.451 98.1187 112.382C99.8915 112.235 101.563 111.873 103.161 111.061C104.108 110.579 105.117 110.143 106.007 109.561C106.753 109.075 108.167 107.599 109.159 108.235C108.905 107.485 110.102 108.18 110.14 107.214C110.332 107.359 110.524 107.504 110.716 107.649C110.831 107.396 110.799 106.998 110.954 106.778C111.166 106.475 111.269 106.653 111.45 106.483C111.652 106.293 111.829 105.783 112.071 105.638C112.321 105.488 112.615 105.667 112.884 105.536C113.293 105.337 115.053 103.396 114.755 105.059C115.513 104.802 114.929 104.567 115.023 104.062C115.213 103.051 115.676 103.779 116.136 103.867C116.89 104.012 116.875 103.388 117.295 102.935C117.679 102.521 118.401 102.336 118.152 101.618C118.436 101.771 118.497 102.07 118.53 102.362ZM73.0785 80.7699C72.4845 81.4315 72.0396 81.1487 71.3794 81.0516C71.3086 80.8147 71.1878 80.7821 71.0173 80.9531C70.8215 81.0656 70.6113 81.1397 70.3858 81.175C69.8443 81.3085 69.2818 81.2518 68.7521 81.454C68.7673 81.2766 68.9536 80.9611 68.8342 80.781C68.2771 81.1663 67.9317 81.4114 67.2476 81.4187C66.6933 81.4245 65.7203 81.0011 65.26 81.5074C65.2458 81.3103 65.2315 81.1134 65.2176 80.9163C64.9922 81.0286 64.796 81.1788 64.6292 81.3672C64.5975 81.0752 64.5801 80.8544 64.387 80.6185C64.0207 81.3716 63.6196 81.3895 62.9082 81.1018C63.008 81.142 62.1961 80.6661 62.2272 80.798C61.9705 79.7165 66.0221 79.8058 66.4476 79.7631C67.5099 79.6558 68.5719 79.5935 69.6358 79.4955C70.6447 79.4029 71.3979 79.2455 72.0961 80.0872C71.7849 78.8714 74.729 78.9316 73.0785 80.7699ZM26.6236 61.9135C26.7352 63.7517 27.1443 65.7055 26.4296 67.4747C25.855 68.8969 24.7088 70.5029 23.4739 71.431C20.9456 73.3313 18.8027 71.006 18.4506 68.4506C18.0839 65.7852 18.8109 62.5284 21.106 60.8851C22.4775 59.9031 23.8054 59.9712 25.3843 60.294C25.755 60.3699 26.357 60.3407 26.5691 60.7092C26.6189 60.7954 26.5742 61.9117 26.6236 61.9135ZM60.2039 86.405C59.7671 86.6255 59.3101 86.7546 58.9251 87.0543C58.7914 87.1586 58.7458 87.3961 58.6039 87.4836C58.3456 87.6434 57.9764 87.5374 57.7072 87.6693C57.2617 87.887 56.9422 88.1986 56.4128 88.3992C55.6264 88.6972 54.9368 89.1059 54.1935 89.4935C52.9551 90.1392 51.6258 90.6935 50.3312 91.2192C49.6776 91.4846 47.8702 92.0018 47.9327 92.9585C47.7865 92.998 47.6371 92.6783 47.3318 92.7038C46.9128 92.7386 46.3592 93.2232 45.9242 93.3424C45.1103 93.5652 44.4804 93.5848 44.4804 94.6224C44.2215 94.4465 44.1556 94.0156 43.811 93.9587C43.423 93.8944 43.2598 94.313 42.9496 94.4431C42.5841 94.5965 42.1297 94.4494 41.7678 94.6125C41.6096 94.7799 41.4337 94.9262 41.2402 95.0507C41.0433 95.0732 40.8473 95.0675 40.6524 95.0324C39.8841 95.1954 39.1772 95.4844 38.4071 95.6344C37.6566 95.7811 37.1425 95.8342 37.4582 96.7217C36.6552 96.8789 36.4593 96.0268 35.5534 96.3387C34.4431 96.7202 33.4054 96.9956 32.2464 97.2284C31.6554 97.3472 31.0377 97.6121 30.4424 97.6744C30.0176 97.7188 29.6212 97.5668 29.2029 97.6142C28.6988 97.6706 28.2937 97.9041 27.772 97.9128C27.2771 97.9215 26.7577 97.8327 26.2718 97.7454C26.3405 97.9412 26.4265 98.1289 26.5296 98.3086C26.1936 98.2383 26.0385 97.8342 25.7537 97.7744C25.4548 97.7119 25.1869 98.0202 24.938 97.9519C24.832 97.9226 24.9025 97.5958 24.713 97.5333C24.54 97.4769 24.4673 97.5436 24.2958 97.5168C24.2387 97.5079 23.5219 97.4691 23.4077 97.5296C23.2081 97.6354 23.4101 97.8336 23.3704 97.863C22.6963 98.3619 22.688 98.0927 22.3875 97.5715C21.9462 96.8065 21.4141 97.2894 20.6121 97.1554C19.7181 97.0063 19.0138 97.4008 18.1341 97.3445C17.1852 97.284 16.07 96.574 15.2309 96.1592C13.4193 95.2639 11.6525 94.4165 10.1311 93.0603C7.15666 90.4091 4.73697 87.1488 3.31029 83.4163C1.77738 79.4064 1.48691 75.2244 1.60995 70.9703C1.68397 68.4118 1.88875 65.8548 2.29201 63.3264C2.56963 61.5871 2.62778 58.4962 4.58876 57.7042C4.92582 61.7766 3.86207 65.9265 4.53295 69.9725C4.73496 71.1913 5.22761 72.815 6.15999 73.7177C7.54038 75.0537 7.86337 73.1224 7.98815 72.0556C8.22052 70.0741 8.65223 68.1038 8.95804 66.1316C9.2634 64.1606 9.47925 62.1673 9.90382 60.2168C10.0587 59.5056 11.3074 54.2977 12.2239 54.5443C12.0385 58.333 11.546 62.0565 11.5266 65.8591C11.519 67.3843 11.3824 68.9953 11.6025 70.5105C11.7159 71.2902 12.426 73.5782 13.6472 73.3873C14.7773 73.2108 13.5349 71.5991 13.4293 70.9777C13.1499 69.3326 13.5061 67.2859 13.7666 65.653C14.2599 62.5628 15.3602 59.398 17.1584 56.8156C18.7692 54.5033 21.2491 52.3019 24.2369 52.7097C25.5133 52.884 26.5093 53.201 27.1506 54.3667C27.6539 55.2814 29.6363 56.3209 28.4874 57.4663C27.4417 58.5089 25.7501 57.6743 24.5876 57.4256C23.1641 57.1214 21.6386 57.4875 20.4482 58.3216C18.4058 59.7522 17.2419 62.3103 16.862 64.7095C16.3499 67.9442 17.7187 76.4113 22.7601 74.5137C26.1093 73.253 28.6319 68.718 28.3506 65.2461C28.2379 63.8563 27.6946 61.2179 29.6174 60.8427C32.0808 60.3621 32.4288 63.0775 32.1793 64.8423C31.8167 67.4091 30.46 69.796 28.908 71.8255C27.5553 73.5943 25.982 74.7003 24.3543 76.1613C23.8724 76.5937 22.6431 77.566 22.8496 78.3705C23.076 79.252 25.0077 79.5026 25.7811 79.6475C29.6078 80.3638 33.923 79.7049 37.7432 79.2049C45.5947 78.1765 53.3428 75.6443 59.7809 70.9886C60.041 73.8693 60.3689 76.7403 60.4896 79.6314C60.5481 81.0348 60.5631 82.4585 60.7236 83.8543C60.8225 84.7128 61.1794 85.9121 60.2039 86.405ZM38.4332 96.4427C38.1249 96.6036 38.4582 95.6286 38.3725 95.9512C38.833 96.1164 38.8533 96.2802 38.4332 96.4427ZM71.0032 61.5809C71.4925 61.0416 72.8294 59.7587 73.2537 60.9762C73.4115 60.4572 73.4321 59.6884 74.0415 60.3893C74.2841 59.5284 76.9607 59.6089 77.6237 59.571C79.7465 59.4496 81.8778 59.3846 83.993 59.1737C88.3397 58.7404 92.7621 58.9641 97.1247 58.9498C98.0694 58.9467 99.0116 58.8955 99.9493 59.0326C100.854 59.1647 101.805 59.5357 102.728 59.4002C103.548 59.2797 104.086 59.0536 104.93 59.1502C105.94 59.2661 106.92 59.3484 107.939 59.3447C112.446 59.3281 116.951 59.5107 121.46 59.5179C122.338 59.5192 123.391 59.3476 124.215 59.7208C124.521 59.8592 124.854 60.3194 125.088 60.3699C125.355 60.4277 125.196 60.0107 125.554 60.1991C126.033 60.4511 125.662 61.2264 125.345 61.3492C125.535 61.2757 125.003 61.2032 125.056 61.2003C124.804 61.2139 124.589 61.4074 124.318 61.3954C123.905 61.3773 123.559 61.1255 123.227 60.9038C123.221 60.9945 123.404 61.5978 123.195 61.6282C123.015 61.6545 122.847 61.0596 122.829 60.9212C121.821 61.8108 120.752 61.315 119.501 61.4275C118.613 61.5076 116.762 62.0996 116.143 61.173C116.117 61.3701 116.038 61.5427 115.906 61.6907C115.729 61.9601 115.576 61.9373 115.447 61.6213C115.403 61.6233 114.972 61.717 114.963 61.7164C114.66 61.6922 114.266 61.5833 113.957 61.557C113.48 61.5161 113.568 61.8639 113.187 61.8695C112.979 61.8724 112.449 61.5724 112.087 61.5536C111.459 61.5208 110.818 61.7871 110.199 61.7065C109.773 61.6512 109.387 61.3041 108.969 61.2907C108.448 61.2733 108.279 61.6708 107.866 61.1125C107.781 61.0896 107.729 61.4179 107.695 61.4237C107.703 61.4221 107.302 61.4815 107.255 61.5001C107.172 61.5315 106.852 61.6784 106.754 61.68C106.543 61.684 106.429 61.5331 106.205 61.5295C105.836 61.5233 104.656 61.8487 104.689 61.1648C103.369 61.6536 102.244 61.4632 100.89 61.5786C100.269 61.632 99.8783 61.5487 99.2873 61.4347C98.5471 61.2918 98.0556 61.4713 97.3174 61.5076C96.608 61.5425 96.3843 61.2422 95.7854 60.9712C95.5492 60.8643 95.3932 60.7235 95.1035 60.7828C94.9383 60.8168 95.0559 61.0949 95.007 61.1139C94.7526 61.2121 94.5749 61.1081 94.226 61.132C93.5818 61.1757 93.3253 61.7141 92.6633 61.2088C92.8831 61.1822 93.1032 61.155 93.3235 61.1284C92.6903 60.8599 91.8545 60.723 92.0079 61.7005C91.4679 61.6246 91.9353 61.257 91.6699 61.1253C91.4043 60.994 91.1072 61.2139 90.7728 61.3226C89.8898 61.609 89.1536 61.4668 88.233 61.4155C87.1868 61.357 84.7397 62.2106 83.9905 61.1025C83.968 61.336 83.7173 61.9864 83.3836 61.9559C83.2749 61.9458 83.578 61.2552 83.6124 61.1822C83.4405 61.548 82.6566 61.6175 82.27 61.8072C82.3135 61.6105 82.3566 61.4141 82.3999 61.2177C82.0412 61.5996 81.8668 61.3666 81.4447 61.4942C81.2601 61.5501 80.9929 61.9306 80.8351 61.9536C80.6514 61.7405 80.4202 61.6487 80.142 61.6784C79.9568 61.6322 79.7717 61.623 79.5867 61.6514C78.8458 61.7052 78.1703 62.1168 77.4333 61.8364C76.7953 61.5934 76.5487 60.9683 76.1683 61.9628C76.0681 61.786 75.9681 61.6092 75.8681 61.4324C75.7446 61.6244 75.6212 61.8161 75.4975 62.0079C75.0149 61.6918 74.9852 61.5088 74.4299 61.6248C74.2995 61.6768 74.1658 61.6695 74.029 61.603C73.9961 61.7005 73.9636 61.7976 73.9307 61.8949C73.9178 62.1396 73.845 62.2206 73.7129 62.1373C73.6017 62.0974 73.5015 62.0369 73.412 61.9554C73.0446 61.9835 72.5751 62.0802 72.1807 62.0268C72.0285 62.0065 71.0742 61.5027 71.0032 61.5809ZM82.2485 54.9997C82.2918 55.0662 82.3352 55.1325 82.3785 55.199C81.7818 55.514 81.6414 55.3332 81.5798 54.7006C81.8713 54.7062 81.9211 55.2189 82.2485 54.9997ZM82.6182 54.6285C82.9055 54.7553 83.2349 55.0042 83.5055 54.6707C83.6876 55.2002 82.3347 55.9227 82.6182 54.6285ZM84.4736 54.8624C85.0767 55.27 83.63 54.9423 83.6323 54.943C83.8923 54.7028 84.1727 54.676 84.4736 54.8624ZM89.6612 52.5892C89.8681 53.6329 90.4387 53.6032 91.3594 53.118C92.7023 52.4104 92.9291 51.2516 93.0226 49.8679C93.1126 48.5411 93.2749 48.0275 94.643 48.3045C95.5979 48.4978 96.4057 48.3353 97.3685 48.3087C98.3957 48.2804 98.7578 48.4373 98.8404 49.4945C98.9232 50.553 99.1116 51.3568 99.8797 52.1624C100.661 52.9814 101.702 53.4704 102.717 53.9287C103.239 54.164 103.729 54.4173 104.306 54.4684C104.53 54.4883 105.695 54.341 105.719 54.7095C105.737 54.9865 104.124 55.7678 103.953 55.8609C103.205 56.2676 102.46 56.6325 101.643 56.879C99.7632 57.446 97.7703 57.4794 95.8236 57.4451C92.6847 57.3899 88.3467 56.0622 86.4698 53.2776C87.5337 53.0481 88.5975 52.8186 89.6612 52.5892ZM89.3797 43.551C88.883 43.1343 88.5614 42.5046 88.1489 42.0111C87.9408 41.7622 87.7884 41.6829 87.5904 41.5584C87.3819 41.4271 87.2645 41.6128 87.0904 41.3043C86.641 40.5075 88.0279 39.386 86.5569 39.0793C86.0593 38.9753 84.8615 39.3697 84.7162 38.6565C84.5106 37.6482 86.4352 37.5824 86.8879 37.0706C87.7884 36.0531 87.1772 34.3283 87.7257 33.1546C88.2446 32.0428 89.5846 31.8452 90.6422 31.5111C92.1159 31.0459 93.6072 30.776 95.1035 30.4037C96.1497 30.1434 97.8879 29.0979 98.8582 30.0218C97.3609 30.3541 98.2312 30.876 99.2292 31.1704C100.36 31.5044 101.558 31.6345 102.729 31.7276C103.935 31.8231 105.163 31.8414 106.355 31.601C107.456 31.3787 108.687 30.4211 109.842 30.6664C109.201 31.7809 107.292 32.3897 106.131 32.6816C105.54 32.8303 105.162 32.7839 105.241 33.5209C105.318 34.2352 105.939 34.9515 106.079 35.6957C106.265 36.6806 106.103 37.5857 105.752 38.5119C105.407 39.4233 105.327 39.5423 105.628 40.413C106.098 41.7689 105.088 43.2675 104.156 44.2522C100.383 48.2335 93.1628 46.7254 89.3797 43.551ZM98.9663 19.7564C98.9815 19.797 98.9685 19.7816 98.9663 19.7564V19.7564ZM100.141 29.8039C99.9848 29.9206 99.0839 30.1657 99.1217 29.8137C99.1719 29.3418 99.9839 29.5124 100.141 29.8039ZM102.195 20.2738C101.983 20.1162 101.391 20.1809 101.824 19.5836C101.965 19.8463 102.08 20.06 102.195 20.2738ZM87.9853 16.4978C88.2547 15.7978 88.5531 15.1465 88.6746 14.4011C88.7496 13.942 88.6005 13.4176 89.2424 13.3455C88.4243 12.9888 88.4161 11.5808 88.3676 10.8508C88.3013 9.84567 87.9837 8.49979 88.4257 7.56419C88.879 6.60313 89.4909 6.61902 89.6755 7.76362C89.7478 8.21177 89.4712 8.35671 89.4192 8.66881C89.3163 9.28624 89.521 9.15088 89.9192 8.68051C90.0837 9.15858 90.1467 9.87698 90.8159 9.8466C90.7712 9.71732 90.515 9.43211 90.6007 9.2715C90.7322 9.02487 91.3748 9.40171 91.4563 9.45876C92.0434 9.86928 92.1706 10.244 91.7521 10.7618C92.3316 10.8243 91.8452 11.3317 92.2193 11.4638C92.79 11.6656 92.4072 10.7098 92.3454 10.5417C92.6927 10.6772 92.8092 10.8321 93.0293 11.1064C93.1584 11.2957 93.276 11.4924 93.382 11.6957C93.5003 12.0672 93.7436 12.16 94.1124 11.975C94.8517 12.2069 95.8722 12.1705 96.5348 12.5761C96.8374 12.7611 96.9466 13.1663 97.1995 13.3201C97.4839 13.4933 97.8652 13.4147 98.1707 13.5234C98.0589 13.7775 98.1495 13.915 98.4417 13.9364C98.669 13.9572 98.889 14.0083 99.1018 14.0897C99.2607 13.9699 99.4339 13.875 99.6208 13.8063C99.7464 14.0275 99.9239 14.0822 100.154 13.9708C100.835 14.0985 101.163 14.3563 101.596 14.7418C101.985 15.0878 101.668 15.1159 102.094 15.0851C102.266 15.0728 102.566 14.7824 102.957 14.8391C103.183 14.8828 103.4 14.9525 103.609 15.0474C103.835 15.2409 104.076 15.2652 104.33 15.1206C104.743 15.3221 104.783 15.6797 105.286 15.7286C105.843 15.7829 105.664 15.0889 106.046 16.0675C106.561 15.0299 106.749 16.6829 107.281 16.8164C107.831 16.9548 107.891 16.5083 108.362 16.9961C108.503 17.1423 108.495 17.3838 108.654 17.5387C108.914 17.7923 109.265 17.7416 109.491 18.0876C109.365 17.8945 109.521 18.772 109.518 18.743C109.553 19.13 109.209 19.5637 109.914 19.5307C109.906 19.5713 109.568 20.0649 109.502 20.0091C109.485 19.9528 109.472 19.8957 109.461 19.8379C109.385 19.8704 109.352 20.3405 109.366 20.4236C109.425 20.4329 109.45 20.3885 109.439 20.2903C109.323 20.6528 109.498 20.8832 109.275 21.2274C109.133 21.4473 108.743 21.6127 108.536 21.7484C108.036 22.0761 107.547 22.4049 107.059 22.7538C105.922 23.5672 104.649 24.5482 103.218 24.7179C103.937 24.0118 108.074 21.3399 105.999 20.5729C105.614 20.4307 104.913 20.2961 104.511 20.2662C104.01 20.2292 103.492 20.5158 102.94 20.3367C102.274 20.1213 102.525 19.495 102.118 19.2702C101.254 18.7936 101.458 19.9146 101.186 20.2082C100.9 19.9084 100.961 19.7624 100.51 19.7354C100.052 19.7077 99.9431 20.1312 99.4085 19.8673C98.6721 19.5039 99.0618 18.7798 98.0172 18.7628C98.0346 18.6039 98.1861 18.1597 97.9868 18.0358C97.718 18.3843 97.9261 18.774 97.6765 19.1095C97.5517 19.2778 97.2808 19.4119 97.083 19.4664C96.6198 19.5936 96.554 19.8372 96.6294 19.1398C96.2861 19.7582 95.2336 19.5039 94.6075 19.4416C93.5896 19.3405 92.5079 19.1479 91.532 18.8215C90.6295 18.5195 90.1476 18.0008 89.4031 17.5287C89.1219 17.3501 88.9875 17.4184 88.5842 17.3074C88.1857 17.1981 87.7978 16.986 87.9853 16.4978ZM90.1328 5.54924C90.2866 5.45665 90.3969 6.83806 90.2107 7.09617C89.8697 6.55683 89.2652 5.76572 90.1328 5.54924ZM90.6237 4.99821C91.1179 4.55099 90.7746 5.7061 90.684 5.8999C90.5009 5.78255 90.3179 5.66518 90.1349 5.54784C90.3683 5.40453 90.4266 5.17658 90.6237 4.99821ZM109.267 3.13661C113.832 4.09466 118.356 5.88541 122.017 8.83245C125.353 11.5167 127.707 15.3253 129.026 19.3765C130.396 23.5814 129.936 28.2467 126.677 31.4651C124.96 33.1602 122.693 34.183 120.532 35.181C119.497 35.6591 118.43 36.0574 117.391 36.5246C116.645 36.8601 115.733 37.3967 114.881 37.3038C115.316 36.8464 115.946 36.8371 116.472 36.5576C117.108 36.2194 117.627 35.5708 118.175 35.1073C118.718 34.6473 119.925 33.1986 120.76 33.5493C120.644 32.7774 121.524 32.4191 121.92 31.9102C122.339 31.3718 122.369 30.7421 123.142 30.566C122.312 29.9168 122.566 28.6929 122.746 27.8094C122.977 26.6795 123.084 25.6422 123.175 24.4924C123.339 22.4196 123.471 19.7789 122.326 17.9568C121.954 17.365 121.481 16.8213 121.15 16.2065C120.75 15.4659 120.838 14.8141 120.838 14.002C120.107 14.4931 119.953 13.492 119.645 13.004C119.413 12.6379 119.109 12.4335 119.034 11.9727C118.98 11.6377 119.343 11.581 119.144 11.2296C118.899 11.4142 118.802 11.7004 118.678 11.966C118.452 11.8759 118.718 11.5616 118.589 11.4596C118.585 11.4567 118.15 11.2676 118.172 11.2948C117.891 10.9397 117.801 10.3504 117.664 9.92772C117.151 10.1877 117.247 10.1571 116.674 9.7227C116.573 9.64624 116.07 9.29512 116.022 9.18032C115.801 8.64357 116.189 8.9615 116.08 8.62837C115.768 7.67149 114.019 7.85246 113.88 6.41866C113.027 6.96034 112.702 6.19283 112.197 5.64695C111.68 5.08776 110.813 4.87267 110.86 3.98571C110.591 4.07758 110.323 4.16922 110.054 4.26062C110.194 3.44217 108.978 3.49429 108.538 3.07911C108.782 3.08214 109.025 3.10132 109.267 3.13661ZM109.962 53.8294C110.385 53.451 110.257 53.9546 110.529 53.897C110.762 53.8477 110.808 53.6718 111.031 53.6178C111.951 53.3954 113.326 53.6747 114.294 53.6267C115.414 53.5713 117.335 53.8039 117.868 55.1149C118.19 55.9042 117.699 55.6357 117.158 55.5769C116.739 55.5316 116.366 55.6165 115.951 55.6122C115.746 55.6439 115.542 55.6408 115.338 55.6026C115.239 55.5372 115.18 55.445 115.162 55.3263C114.585 55.239 113.972 55.5805 113.332 55.5975C112.479 55.6203 111.721 55.4566 111.073 54.8805C110.815 55.2647 110.639 55.4553 110.176 55.4981C110.164 55.4993 109.711 55.3171 109.641 55.2988C109.548 55.2747 109.313 55.4693 109.135 55.4138C109.452 54.9084 109.498 54.2443 109.962 53.8294ZM168.237 58.3913C168.388 57.8674 168.513 57.3366 168.651 56.8093C170.757 59.2069 172.6 62.4166 173.429 65.4914C173.968 67.4894 174.806 71.1101 172.238 72.1407C170.146 72.9802 168.979 69.971 168.45 68.4888C167.281 65.2169 167.281 61.7204 168.237 58.3913ZM74.008 20.8222C74.035 20.8167 72.6446 21.6254 73.1026 20.9707C73.2865 20.7073 73.9845 20.5222 74.2941 20.5222L74.008 20.8222ZM72.6705 21.1649C72.5095 21.3002 72.347 21.4339 72.1832 21.5658C72.0258 21.3171 71.868 21.0682 71.7106 20.8196C72.0211 20.6888 73.3388 20.5905 72.6705 21.1649ZM71.6903 46.3076C71.3994 46.1105 71.1689 46.2152 71.0814 46.546C71.0814 46.2169 71.2528 45.4522 71.5162 45.3631C71.6865 45.3053 70.9503 44.4345 71.1573 44.2066C71.6834 44.508 71.3684 44.7966 71.5224 45.1857C71.5921 45.3611 71.801 45.5272 71.8468 45.662C71.9245 45.891 72.2385 46.6781 71.6903 46.3076ZM70.265 44.3479C69.967 44.4243 70.4887 44.916 70.4883 45.1334C70.4878 45.298 70.2905 45.4241 70.209 45.6491C70.0325 46.1364 70.3363 46.4656 69.8362 46.8375C69.8362 45.7696 69.1195 42.9399 70.4967 42.4195C69.8249 41.8905 70.3767 41.2798 70.9032 41.9131C71.4095 42.5218 71.0869 44.1377 70.265 44.3479ZM69.5476 40.1338C69.2769 39.1739 68.4621 38.8382 67.5308 38.8951C67.5663 38.4036 67.9387 37.6951 68.2076 38.5809C68.3184 38.319 68.3949 37.9775 68.6472 37.8041C69.0719 39.1356 71.1894 39.8713 69.8711 41.3142C69.7633 40.9209 69.6586 40.5266 69.5476 40.1338ZM67.0869 38.9666C62.1834 39.3222 55.2994 40.3396 51.3754 36.581C48.8169 34.1303 48.9535 30.3139 51.0211 27.5911C52.2011 26.0373 53.8118 24.9433 55.4295 23.9011C56.0536 23.4986 56.5824 23.2332 57.2677 23.002C57.3786 22.9899 57.4831 23.0147 57.5806 23.0763C57.6193 22.9107 57.7123 22.7884 57.8608 22.7082C58.1255 22.5667 58.5025 22.516 58.655 22.222C58.4923 22.7743 58.4086 23.3428 58.349 23.914C58.2168 23.7602 58.0849 23.6065 57.953 23.4527C57.8427 24.4933 56.7585 23.8634 56.1112 23.9933C56.5375 24.5835 56.8425 24.7978 56.8793 25.5777C56.5617 24.9913 55.8976 24.6058 55.2802 24.417C55.6154 25.4087 55.8525 25.9973 55.515 27.0849C55.1072 26.8521 55.0797 26.2929 54.5851 26.159C54.4545 26.8074 54.4315 27.5271 54.2643 28.1563C52.9977 27.5786 53.1212 29.1345 53.6299 29.9043C53.9002 30.3139 54.033 30.7881 54.2743 31.1812C54.8663 32.1457 54.4165 30.7035 55.0746 30.7718C54.9268 31.789 54.8752 31.8903 55.6197 32.6352C56.3462 33.3616 56.723 34.3694 57.5001 35.0518C57.7251 34.7643 57.3713 34.4634 57.3402 34.1881C58.0632 34.3093 58.4019 35.0344 59.097 34.3922C59.4001 34.983 59.7282 35.6337 60.4541 35.7549C59.9742 34.8426 61.3758 35.4614 61.7352 35.5908C62.0077 35.6891 62.4961 35.7672 62.6013 35.8049C63.1935 36.0187 62.7874 35.635 63.1468 36.3362C63.6745 36.1768 63.8736 35.7391 64.5049 36.1089C65.0181 36.4098 65.0192 36.925 65.1366 37.4529C65.2589 37.1076 65.3824 36.7625 65.5176 36.4219C65.6554 36.4799 66.2333 37.1159 66.1701 37.1188C67.5226 37.0525 67.4748 37.8922 67.0869 38.9666ZM60.2021 21.7522C60.4738 21.5615 60.8053 21.8153 61.1102 21.747C61.5325 21.6528 61.7722 21.2912 62.2439 21.2524C62.1127 21.6718 61.8664 21.6325 61.658 21.9618C61.587 22.0741 61.624 22.3433 61.5609 22.408C61.0323 22.9493 60.8497 22.5075 60.3102 22.0977C60.357 22.5919 60.4521 22.748 59.9865 22.8805C59.5651 23.0009 58.8693 22.5582 58.6568 22.2187C58.836 21.8602 59.8771 21.9803 60.2021 21.7522ZM63.5667 20.9796C64.0245 21.0234 63.4729 22.3743 62.8169 21.064C63.064 21.0102 63.314 20.9821 63.5667 20.9796ZM65.921 20.7187C66.6431 20.5713 69.0516 19.885 69.3197 21.0089C69.3677 20.981 69.547 20.3463 69.6302 20.4238C69.9637 20.7341 70.001 21.1452 69.9755 21.5761C69.5724 20.7363 69.7157 21.474 69.4425 21.4165C69.3713 21.4013 69.2621 21.5345 69.0815 21.4796C68.8447 21.4073 68.6751 20.9035 68.5255 20.733C68.2766 21.0881 67.9681 21.5457 67.4697 21.5149C67.1168 21.493 66.5482 20.5847 67.0052 21.5792C66.7369 21.4906 66.4264 21.2899 66.1275 21.3301C65.7929 21.3754 65.619 21.7055 65.3054 21.7589C64.61 21.8767 64.5051 21.2077 64.0538 20.8443C64.6763 20.8082 65.3062 20.8439 65.921 20.7187ZM70.2896 20.7077C70.3405 20.4774 70.9724 20.3843 71.1334 20.4575C71.526 20.6359 71.3807 20.8714 71.3086 21.2631C71.0173 21.1252 70.7258 20.9874 70.4345 20.8495C70.8693 21.5499 70.0813 21.6515 70.2896 20.7077ZM192.6 61.7344C192.548 60.056 192.499 58.3484 192.074 56.7142C191.776 55.5707 191.044 53.52 189.661 53.3215C187.574 53.022 186.418 57.1464 185.834 58.562C185.717 56.8953 185.819 55.1211 185.189 53.5392C184.685 52.2713 183.412 51.0706 182.315 52.4943C181.339 53.7615 181.152 55.6319 180.895 57.1564C180.562 59.1319 180.362 61.1226 180.119 63.1099C179.166 61.2679 178.999 59.1594 178.246 57.2451C177.535 55.4385 176.416 53.7133 175.339 52.1066C174.459 50.794 173.388 49.5601 172.01 48.7578C170.81 48.0596 168.711 47.3042 167.568 48.4639C166.613 49.4315 166.763 50.7264 166.812 51.9476C166.835 52.4914 166.92 52.8642 166.442 53.1383C166.207 53.2729 165.839 53.2032 165.581 53.2751C165.165 53.3914 164.846 53.5883 164.494 53.8499C162.026 55.6841 160.889 58.9895 160.537 61.9364C160.091 65.6704 161.547 68.8714 162.799 72.288C162.999 72.8324 163.633 73.9876 163.545 74.5954C163.449 75.2613 162.613 75.2787 162.049 75.2925C160.346 75.3345 158.565 75.2077 156.87 75.0488C152.834 74.6713 148.801 72.7284 145.188 70.9938C144.529 70.6772 143.596 70.496 143.058 69.9975C142.552 69.529 142.418 68.7781 141.982 68.2406C140.91 66.9218 140.227 65.7966 138.649 64.9997C137.042 64.1885 135.402 63.4387 133.834 62.5503C131.896 61.4509 130.104 60.0585 128.246 58.8277C124.793 56.5408 121.363 54.0338 117.702 52.0892C116.001 51.1853 114.1 51.0391 112.334 50.2992C110.613 49.5786 108.502 49.5777 106.707 50.0326C105.833 50.2545 105.238 50.78 104.434 51.1231C103.492 51.5251 102.723 51.0813 101.894 50.6014C100.627 49.8683 99.3708 48.6737 101.175 47.8828C101.787 47.6143 102.554 47.5127 103.088 47.0908C103.658 46.6413 104.116 45.8118 104.579 45.2486C105.609 43.9966 106.225 42.5555 107.733 41.7769C109.4 40.9159 111.377 40.6816 113.155 40.1188C115.081 39.5094 116.967 38.7847 118.858 38.073C122.264 36.7911 125.805 35.4069 128.252 32.5845C130.363 30.1499 131.283 27.007 131.198 23.8149C131.024 17.2896 127.528 10.6669 122.513 6.58699C116.363 1.58408 108.539 -0.084193 100.771 0.00324174C97.1254 0.0444033 92.7744 0.521533 89.7324 2.73662C87.1049 4.64987 86.6678 7.99623 87.0587 11.0169C87.2172 12.2428 87.7594 13.8607 86.8948 14.9409C86.4109 15.5454 85.5424 15.6949 84.8906 16.0717C84.0716 16.5452 83.3492 16.999 82.4215 17.2492C78.4811 18.3135 74.3303 17.9429 70.3012 17.884C63.5895 17.7858 56.7099 19.603 51.7031 24.3324C47.6597 28.1512 46.4472 35.3524 51.3785 39.0753C55.3627 42.0829 61.612 41.7521 66.3098 41.2276C67.7666 41.0646 68.7684 40.828 68.7717 42.6104C68.7753 44.5573 68.453 46.5922 68.9496 48.5034C69.732 51.5137 72.6245 51.5853 75.1817 50.9371C76.531 50.5951 77.8355 50.0809 79.1168 49.5422C80.9963 48.7523 82.7191 47.5906 84.5751 46.802C85.8334 46.2676 86.7756 47.996 87.8917 46.7978C88.098 46.5763 88.1362 46.2464 88.4471 46.133C88.9346 45.9555 89.7523 46.5779 90.1799 46.7748C90.8201 47.0694 91.4655 47.2862 91.7213 47.996C91.9606 48.6598 91.8557 49.7157 91.6264 50.3706C91.1284 51.7945 89.7873 51.513 88.563 51.4177C86.4274 51.2516 84.3064 50.8992 82.1718 50.7512C80.2565 50.6186 78.463 51.1907 76.8112 52.1354C73.3414 54.1189 70.5028 57.2741 67.4945 59.8688C65.946 61.2041 64.4493 62.6465 62.7656 63.8092C62.0334 64.3151 61.2405 64.7798 60.6044 65.4082C59.9729 66.0314 59.9035 66.5981 59.6876 67.4276C59.303 68.9044 57.3931 69.6263 56.1994 70.4056C54.5112 71.5074 52.7214 72.2846 50.8287 72.9608C46.8208 74.3925 42.7812 75.3921 38.591 76.1309C36.5394 76.493 34.505 76.7307 32.4335 76.926C30.6478 77.0943 28.7491 77.6443 26.9655 77.205C27.4792 76.3718 28.3895 75.8715 29.0984 75.2276C30.0122 74.3974 30.7895 73.4135 31.4813 72.3942C32.8275 70.4094 33.7719 68.2796 33.9887 65.8722C34.1842 63.7055 33.9601 61.1137 32.6527 59.2833C32.2011 58.6509 31.3076 58.479 30.9036 57.9094C30.5015 57.3433 30.6549 56.3685 30.4348 55.7084C29.8747 54.0294 28.2124 51.9487 26.7495 50.9735C25.1624 49.9152 22.8407 49.5266 21.0074 50.0779C17.6109 51.0996 15.5245 54.7294 13.9702 57.6629C13.1213 55.8765 14.543 53.226 12.8845 51.763C11.4855 50.5289 10.3753 52.9195 9.90739 53.9423C7.71114 58.7435 7.21225 63.8358 6.29214 68.973C5.91713 68.6033 6.10932 67.6546 6.14459 67.2138C6.21022 66.3928 6.20397 65.5876 6.20575 64.7635C6.21022 62.6811 6.59728 60.5893 6.41982 58.5089C6.31736 57.3062 5.93387 54.7705 4.18663 55.17C2.70484 55.5089 1.77667 57.5926 1.31108 58.8665C0.639526 60.7041 0.484479 62.5231 0.526287 64.4642C0.572516 66.6089 0.163892 68.7185 0.0648941 70.8603C-0.12752 75.0204 0.0625516 79.1444 1.25621 83.1594C3.21083 89.7341 7.70511 95.1967 13.7032 98.4954C17.008 100.313 20.6741 101.463 24.4434 101.71C26.4861 101.844 28.458 101.601 30.4832 101.39C32.4817 101.182 34.4907 101.085 36.4858 100.841C40.9288 100.296 45.2581 98.8892 49.2966 96.9965C51.4223 96.0001 53.4214 94.7768 55.5123 93.7145C56.3514 93.2886 56.9181 92.7554 57.6342 92.1627C58.3441 91.5754 58.5405 91.5294 59.3479 91.5294C59.111 90.8959 59.8021 90.7006 60.1097 90.2997C60.0925 90.4944 60.0751 90.6886 60.0579 90.8828C60.2923 90.3743 60.5106 90.3792 60.7126 90.8975C60.9122 90.3171 61.06 89.7203 61.301 89.1544C62.2227 89.6209 62.145 90.7296 63.3776 89.92C64.3926 89.2539 65.3259 88.4678 66.3605 87.8149C68.7175 86.3271 70.7496 84.3913 73.1133 82.9208C73.1133 84.3532 73.2144 85.7979 73.0229 87.2229C72.8408 88.578 72.335 89.8446 71.9325 91.1419C71.1905 93.5353 71.1392 96.0931 70.3168 98.4624C69.9766 99.4436 69.0907 100.264 68.8364 101.219C68.5775 102.194 69.1757 102.975 68.173 103.614C67.4659 104.066 66.5822 104.256 65.7991 104.529C64.6049 104.945 63.4709 105.533 62.3084 106.031C56.8552 108.367 51.5361 110.747 46.4838 113.889C41.689 116.87 36.8211 119.95 32.4165 123.49C28.5939 126.563 24.7298 130.537 23.7992 135.55C22.8963 140.412 25.3021 145.631 30.1328 147.233C32.6444 148.065 35.484 147.962 38.0997 147.998C40.9142 148.037 43.8969 147.359 46.6641 146.868C49.5865 146.35 52.4589 145.539 55.3898 145.076C58.2019 144.631 60.7809 143.639 63.5471 143.027C66.4931 142.376 69.5148 142.022 72.4771 141.436C73.8109 141.172 75.1174 140.783 76.4547 140.538C77.9188 140.271 79.3989 140.171 80.8487 139.817C83.6609 139.129 86.3533 138.021 89.1777 137.382C90.4474 137.094 91.6978 136.709 92.9682 136.441C94.1376 136.193 95.0488 135.536 96.2209 136.076C97.1678 136.512 97.9232 137.26 98.8194 137.781C99.9817 138.456 101.207 139.062 102.419 139.643C104.854 140.812 107.379 141.619 109.925 142.496C112.599 143.418 115.226 144.469 117.996 145.077C120.836 145.701 123.734 145.875 126.594 146.368C132.451 147.379 138.258 147.832 144.204 147.869C147.209 147.888 150.214 147.531 153.212 147.574C155.866 147.611 158.173 148.209 160.6 146.798C164.478 144.544 168.976 141.147 168.881 136.215C168.794 131.747 166.114 127.478 163.601 123.954C160.548 119.675 156.196 116.662 151.93 113.71C147.383 110.564 142.277 108.39 137.498 105.644C135.054 104.24 132.801 102.729 130.147 101.731C128.88 101.255 127.645 100.703 126.393 100.19C125.386 99.7771 123.931 99.549 123.069 98.8644C122.531 98.4372 122.479 97.7903 122.338 97.1552C122.023 95.7496 121.529 94.4168 121.049 93.0612C120.124 90.4437 119.509 87.778 119.112 85.0329C118.733 82.4161 117.891 79.6946 118.327 77.035C121.193 79.8073 124.138 82.4721 127.07 85.1708C128.169 86.1822 129.248 87.2148 130.352 88.22C131.182 88.9747 132.219 90.0957 133.375 90.3196C134.851 90.6058 134.312 88.9727 135.325 88.7196C135.945 88.5651 137.813 90.1392 138.303 90.4502C141.408 92.4212 144.846 93.6701 148.261 95.0119C151.841 96.4186 155.524 97.6682 159.377 98.0222C162.936 98.3499 166.575 97.9296 170.01 96.9599C176.849 95.0288 181.882 90.4473 185.576 84.5083C189.785 77.7408 192.848 69.8132 192.6 61.7344Z" fill="black"/>
<path fill-rule="evenodd" clip-rule="evenodd" d="M88.0643 46.9814C88.0632 46.9835 88.0527 47.0058 88.0527 47.0058C88.0657 46.9968 88.0695 46.9888 88.0643 46.9814Z" fill="black"/>
<path fill-rule="evenodd" clip-rule="evenodd" d="M88.3947 47.0688C88.369 46.8532 88.3136 46.6422 88.2288 46.4355C88.0025 46.7945 87.7998 46.9483 88.0973 47.3284C88.1962 47.2418 88.2953 47.1554 88.3947 47.0688Z" fill="black"/>
<path fill-rule="evenodd" clip-rule="evenodd" d="M104.167 98.3738C104.42 98.1042 103.977 98.0026 103.809 97.999C103.826 98.2881 103.682 98.9812 104.078 99.1151C103.983 98.8535 104.013 98.6064 104.167 98.3738Z" fill="black"/>
<path fill-rule="evenodd" clip-rule="evenodd" d="M97.4855 41.9811C97.0502 42.8217 98.0119 43.0825 98.5686 42.6764C98.9873 42.3711 99.2351 41.5927 99.3039 41.0934C99.5264 39.4777 98.3958 37.9397 97.8319 36.506C97.6864 36.1355 97.4868 34.8644 97.0176 34.8296C96.4788 34.7894 96.4388 35.96 96.4319 36.262C96.4112 37.1727 96.6522 38.1004 96.9348 38.9601C97.2393 39.8869 97.994 40.9994 97.4855 41.9811Z" fill="black"/>
<path fill-rule="evenodd" clip-rule="evenodd" d="M99.5548 38.61C101.228 40.0997 102.566 37.6184 102.449 36.1508C102.42 35.7871 102.175 34.4463 101.485 34.9342C101.139 35.1793 101.434 35.976 101.269 36.3258C100.468 38.0213 99.6979 35.3911 99.159 35.1847C98.5034 34.9331 98.4376 35.7945 98.4385 36.255C98.44 37.1691 98.8751 38.0046 99.5548 38.61Z" fill="black"/>
<path fill-rule="evenodd" clip-rule="evenodd" d="M93.4823 38.8413C93.8763 38.2207 94.3609 37.3883 94.4145 36.6448C94.4975 35.4892 93.8243 35.5856 93.2698 36.3919C92.8785 36.9615 92.5848 37.9276 91.7205 37.6874C90.6535 37.3915 90.9796 35.9566 90.3823 35.2749C88.874 37.3008 91.7283 41.6025 93.4823 38.8413Z" fill="black"/>
<path fill-rule="evenodd" clip-rule="evenodd" d="M95.743 45.041C96.3669 45.1758 97.9935 45.1263 97.4299 44.1709C96.7191 42.9678 94.3557 44.741 95.743 45.041Z" fill="black"/>
<path fill-rule="evenodd" clip-rule="evenodd" d="M117.598 9.15818C117.712 8.81811 117.556 8.75634 117.283 8.48853C117.025 8.72652 117.356 8.97691 117.598 9.15818Z" fill="black"/>
<path fill-rule="evenodd" clip-rule="evenodd" d="M129.235 70.7547C129.647 70.8201 129.779 70.6024 129.632 70.1015C128.983 70.0596 128.851 70.2772 129.235 70.7547Z" fill="black"/>
<path fill-rule="evenodd" clip-rule="evenodd" d="M106.76 18.2095C107.214 18.4171 107.04 18.843 107.032 19.2028C107.266 18.9488 107.739 18.484 107.546 18.1191C107.25 17.5563 106.476 18.0796 106.76 18.2095Z" fill="black"/>
<path fill-rule="evenodd" clip-rule="evenodd" d="M91.2966 11.1258C91.2274 10.9908 91.1582 10.8558 91.089 10.7207C90.8071 10.947 90.3718 11.5453 90.8198 11.8368C91.0035 11.6138 91.1625 11.377 91.2966 11.1258Z" fill="black"/>
<path fill-rule="evenodd" clip-rule="evenodd" d="M96.7431 15.0963C97.3081 15.5392 97.0371 14.1795 97.0201 14.0686C96.9362 14.228 96.4578 14.8724 96.7431 15.0963Z" fill="black"/>
<path fill-rule="evenodd" clip-rule="evenodd" d="M96.4308 14.4059C96.3877 14.2936 96.3442 14.1811 96.3011 14.0686C96.0721 14.2807 95.7917 14.7135 96.1699 14.9615C96.2737 14.7878 96.3605 14.6025 96.4308 14.4059Z" fill="black"/>
<path fill-rule="evenodd" clip-rule="evenodd" d="M100.017 19.0752C100.064 19.1176 100.11 19.1602 100.156 19.2031C100.342 18.8272 100.13 18.5451 99.7783 18.5334C99.8033 18.7444 99.883 18.925 100.017 19.0752Z" fill="black"/>
<path fill-rule="evenodd" clip-rule="evenodd" d="M84.8825 61.3543C85.1066 61.2019 85.31 61.0278 85.493 60.8324C84.8298 60.4271 85.2272 61.3057 84.4289 60.7661C84.2571 61.0039 84.5379 61.536 84.8825 61.3543Z" fill="black"/>
<path fill-rule="evenodd" clip-rule="evenodd" d="M112.748 98.2224C113 97.8353 113.046 97.8465 112.701 97.5527C112.414 98.0311 112.444 97.9081 112.748 98.2224Z" fill="black"/>
<path fill-rule="evenodd" clip-rule="evenodd" d="M60.0459 36.6311C60.1832 36.7742 60.3205 36.9175 60.4577 37.0604C60.5218 36.8731 60.8714 36.3436 60.6339 36.1675C60.4381 36.3219 60.2419 36.4764 60.0459 36.6311Z" fill="black"/>
<path fill-rule="evenodd" clip-rule="evenodd" d="M64.9282 38.0475C64.709 38.0109 64.1847 37.8511 64.0635 38.0549C64.3842 38.3176 65.1077 38.0777 64.9282 38.0475Z" fill="black"/>
</svg>
