<svg width="83" height="23" viewBox="0 0 83 23" fill="none" xmlns="http://www.w3.org/2000/svg">
<path d="M13.9476 22.3939C12.6912 20.1651 11.3256 17.9583 9.86161 15.7842C8.39765 13.6101 6.84082 11.5561 5.18566 9.62785V22.3939H0.848389V2.90344H4.42637C5.04363 3.52071 5.73192 4.28001 6.48029 5.18133C7.23412 6.08265 7.99342 7.04952 8.76364 8.07649C9.55025 9.08706 10.3314 10.1468 11.1016 11.2557C11.8718 12.3427 12.5929 13.3916 13.2703 14.4076V2.90344H17.6348V22.3939H13.9476Z" fill="#2B2E4A"/>
<path d="M34.3123 14.9699C34.3123 16.1335 34.143 17.1987 33.8043 18.1765C33.4656 19.1324 32.9794 19.9573 32.3403 20.651C31.7012 21.3284 30.931 21.8528 30.0296 22.2242C29.1447 22.6011 28.1505 22.7869 27.0416 22.7869C25.9546 22.7869 24.9549 22.6011 24.0536 22.2242C23.1687 21.8473 22.4094 21.3229 21.7703 20.651C21.1311 19.9573 20.634 19.1324 20.279 18.1765C19.9239 17.2041 19.7437 16.1335 19.7437 14.9699C19.7437 13.8064 19.9239 12.7467 20.279 11.7907C20.6559 10.8348 21.1639 10.0209 21.803 9.3435C22.4585 8.66615 23.2288 8.14174 24.1137 7.77029C25.015 7.39337 25.9928 7.20764 27.0416 7.20764C28.1123 7.20764 29.0901 7.39337 29.9696 7.77029C30.8709 8.1472 31.6411 8.67161 32.2802 9.3435C32.9193 10.0209 33.4164 10.8348 33.7715 11.7907C34.132 12.7467 34.3123 13.8064 34.3123 14.9699ZM30.0296 14.9699C30.0296 13.6753 29.7675 12.6647 29.243 11.9328C28.735 11.1844 28.003 10.8075 27.0471 10.8075C26.0911 10.8075 25.3482 11.1844 24.8238 11.9328C24.2994 12.6647 24.0372 13.6753 24.0372 14.9699C24.0372 16.2646 24.2994 17.297 24.8238 18.0617C25.3482 18.8101 26.0911 19.187 27.0471 19.187C28.003 19.187 28.735 18.8101 29.243 18.0617C29.7675 17.2915 30.0296 16.2646 30.0296 14.9699Z" fill="#2B2E4A"/>
<path d="M36.0112 3.91417L40.2065 3.23682V7.59594H45.2484V11.0811H40.2065V16.2814C40.2065 17.1609 40.3594 17.8656 40.6599 18.39C40.9767 18.9144 41.6104 19.1766 42.5499 19.1766C42.9978 19.1766 43.4622 19.1383 43.9319 19.0619C44.4181 18.969 44.8606 18.8488 45.2539 18.6959L45.8438 21.957C45.3358 22.1646 44.7732 22.3394 44.1559 22.4923C43.5386 22.6398 42.7739 22.7163 41.8726 22.7163C40.7254 22.7163 39.7804 22.5688 39.0266 22.2684C38.2727 21.9515 37.6773 21.52 37.2239 20.9737C36.7705 20.4111 36.4537 19.7337 36.268 18.9471C36.0986 18.1605 36.0167 17.2865 36.0167 16.3306V3.91417H36.0112Z" fill="#2B2E4A"/>
<path d="M51.4592 22.3941H47.264V7.60146H51.4592V22.3941ZM51.8525 3.32427C51.8525 4.09449 51.6012 4.70084 51.0932 5.15423C50.6071 5.58577 50.0226 5.79881 49.3452 5.79881C48.6678 5.79881 48.0779 5.58577 47.5699 5.15423C47.0837 4.7063 46.8379 4.09449 46.8379 3.32427C46.8379 2.55405 47.0837 1.95317 47.5699 1.52709C48.0779 1.07916 48.6678 0.849731 49.3452 0.849731C50.0226 0.849731 50.6016 1.0737 51.0932 1.52709C51.5958 1.95863 51.8525 2.55951 51.8525 3.32427Z" fill="#2B2E4A"/>
<path d="M60.4177 0.570801C61.2043 0.570801 61.9308 0.65274 62.5863 0.822079C63.2419 0.969568 63.7499 1.12252 64.1049 1.27001L63.2856 4.61856C62.9086 4.44922 62.4989 4.32904 62.0456 4.25257C61.614 4.1597 61.2098 4.11054 60.8329 4.11054C60.3248 4.11054 59.8933 4.18702 59.5382 4.33451C59.1996 4.46561 58.9264 4.65133 58.7189 4.89715C58.5331 5.14296 58.3911 5.43248 58.2982 5.77116C58.2218 6.10984 58.1835 6.47583 58.1835 6.86913V7.60112H63.3675V11.0862H58.1835V22.3937H53.9883V6.81451C53.9883 4.90261 54.5236 3.38402 55.5943 2.25873C56.6868 1.13344 58.2928 0.570801 60.4177 0.570801Z" fill="#2B2E4A"/>
<path d="M69.9116 19.4711C70.3268 19.4711 70.7201 19.4602 71.097 19.4438C71.4739 19.4274 71.7743 19.3946 71.9983 19.3618V16.1826C71.829 16.1444 71.5777 16.1062 71.239 16.0679C70.9003 16.0297 70.589 16.0133 70.3104 16.0133C69.9171 16.0133 69.5402 16.0406 69.1851 16.0952C68.8464 16.1335 68.546 16.2154 68.2838 16.3465C68.0216 16.4776 67.814 16.6579 67.6665 16.8818C67.519 17.1058 67.4425 17.3899 67.4425 17.7231C67.4425 18.3786 67.6556 18.8374 68.0926 19.0996C68.5296 19.3454 69.1414 19.4711 69.9116 19.4711ZM69.5729 7.20764C70.8129 7.20764 71.8454 7.34967 72.6702 7.62826C73.4951 7.90685 74.156 8.31108 74.6422 8.83549C75.1502 9.35989 75.5053 9.99901 75.7128 10.7474C75.9204 11.4958 76.0242 12.3315 76.0242 13.2492V21.9675C75.4233 22.0986 74.5876 22.2461 73.5169 22.4154C72.4462 22.6011 71.1516 22.694 69.6276 22.694C68.6716 22.694 67.7976 22.6121 67.0055 22.4427C66.2353 22.2734 65.5689 22.0003 65.0062 21.6288C64.4436 21.2355 64.012 20.7275 63.7116 20.1102C63.4112 19.4929 63.2637 18.7336 63.2637 17.8323C63.2637 16.9692 63.433 16.2373 63.7717 15.6364C64.1268 15.0355 64.5965 14.5602 65.181 14.1997C65.7655 13.8447 66.432 13.5879 67.1803 13.4404C67.9287 13.2711 68.7099 13.1891 69.5183 13.1891C70.0646 13.1891 70.5398 13.2165 70.955 13.2711C71.3865 13.3093 71.7361 13.3639 71.9983 13.4404V13.0471C71.9983 12.337 71.7798 11.7634 71.3483 11.3319C70.9167 10.9003 70.1629 10.6873 69.0922 10.6873C68.3766 10.6873 67.672 10.7419 66.9782 10.8566C66.2845 10.9495 65.6836 11.0915 65.1756 11.2772L64.6402 7.90139C64.8861 7.82491 65.1865 7.7539 65.5416 7.67742C65.9185 7.58456 66.3227 7.50808 66.7542 7.45346C67.1858 7.37698 67.6392 7.32236 68.1035 7.28412C68.5951 7.23495 69.0868 7.20764 69.5729 7.20764Z" fill="#2B2E4A"/>
<path d="M82.6067 22.3941H78.4114V7.60146H82.6067V22.3941ZM83 3.32427C83 4.09449 82.7487 4.70084 82.2407 5.15423C81.7545 5.58577 81.17 5.79881 80.4927 5.79881C79.8153 5.79881 79.2253 5.58577 78.7173 5.15423C78.2312 4.7063 77.9854 4.09449 77.9854 3.32427C77.9854 2.55405 78.2312 1.95317 78.7173 1.52709C79.2253 1.07916 79.8153 0.849731 80.4927 0.849731C81.17 0.849731 81.749 1.0737 82.2407 1.52709C82.7487 1.95863 83 2.55951 83 3.32427Z" fill="#2B2E4A"/>
</svg>
