<svg width="42" height="47" viewBox="0 0 42 47" fill="none" xmlns="http://www.w3.org/2000/svg">
<path d="M20.5579 46.0213C15.0742 46.0213 9.91588 43.9126 6.0355 40.0787C4.14178 38.214 2.6605 36.0357 1.6207 33.6192C0.546041 31.1039 0 28.4376 0 25.6899H5.1932C5.1932 29.7272 6.78486 33.5204 9.67771 36.3784C12.5822 39.2422 16.4393 40.8223 20.5521 40.8223C24.6648 40.8223 28.522 39.2422 31.4264 36.3784C34.3193 33.5204 35.9109 29.7272 35.9109 25.6899H41.1041C41.1041 28.4376 40.5581 31.1039 39.4834 33.6134C38.4436 36.0357 36.9624 38.2082 35.0745 40.0729C31.1999 43.9126 26.0415 46.0213 20.5579 46.0213Z" fill="#E84645"/>
<path d="M31.3421 25.613H26.3827V8.54294C26.3827 6.52321 24.7129 4.88012 22.6603 4.88012H18.4443C16.3917 4.88012 14.7219 6.52321 14.7219 8.54294V25.613H9.76246V8.54294C9.75691 3.83204 13.6512 0 18.4443 0H22.6603C27.4478 0 31.3421 3.83204 31.3421 8.54294V25.613Z" fill="#E84645"/>
</svg>
