<svg width="25" height="24" viewBox="0 0 25 24" fill="none" xmlns="http://www.w3.org/2000/svg">
<path d="M14.4241 8.68744C14.5754 8.83591 14.717 8.99395 14.8489 9.15918C14.7976 9.09452 14.7463 9.02987 14.6951 8.96522C14.9465 9.28848 15.1565 9.64288 15.3201 10.0164C15.2883 9.93981 15.2541 9.86318 15.2224 9.78656C15.3933 10.1841 15.508 10.6007 15.5691 11.0293C15.5569 10.9455 15.5447 10.8593 15.5349 10.7755C15.591 11.2018 15.591 11.6304 15.5349 12.0542C15.5471 11.9704 15.5593 11.8842 15.5691 11.8004C15.5105 12.229 15.3933 12.6457 15.2224 13.0432C15.2541 12.9666 15.2883 12.8899 15.3201 12.8133C15.1565 13.1893 14.9465 13.5413 14.6951 13.8645C14.7463 13.7999 14.7976 13.7352 14.8489 13.6706C14.5852 14.0034 14.2825 14.3003 13.9431 14.559C14.009 14.5087 14.0749 14.4584 14.1409 14.4081C13.8113 14.6547 13.4499 14.8607 13.0691 15.0211C13.1472 14.99 13.2253 14.9564 13.3035 14.9253C12.8982 15.0929 12.4734 15.2055 12.0364 15.2654C12.1218 15.2534 12.2097 15.2414 12.2952 15.2318C11.8606 15.2869 11.4236 15.2869 10.9914 15.2318C11.0769 15.2438 11.1648 15.2558 11.2502 15.2654C10.8132 15.2079 10.3884 15.0929 9.98314 14.9253C10.0613 14.9564 10.1394 14.99 10.2175 15.0211C9.83421 14.8607 9.47533 14.6547 9.14574 14.4081C9.21165 14.4584 9.27757 14.5087 9.34349 14.559C9.00413 14.3003 8.7014 14.0034 8.43773 13.6706C8.489 13.7352 8.54027 13.7999 8.59154 13.8645C8.34007 13.5413 8.13011 13.1869 7.96654 12.8133C7.99827 12.8899 8.03245 12.9666 8.06419 13.0432C7.89329 12.6457 7.77855 12.229 7.71751 11.8004C7.72972 11.8842 7.74193 11.9704 7.75169 12.0542C7.69554 11.628 7.69554 11.1994 7.75169 10.7755C7.73949 10.8593 7.72728 10.9455 7.71751 11.0293C7.77611 10.6007 7.89329 10.1841 8.06419 9.78656C8.03245 9.86318 7.99827 9.93981 7.96654 10.0164C8.13011 9.64049 8.34007 9.28848 8.59154 8.96522C8.54027 9.02987 8.489 9.09452 8.43773 9.15918C8.7014 8.82633 9.00413 8.5294 9.34349 8.27079C9.27757 8.32107 9.21165 8.37136 9.14574 8.42165C9.47533 8.17501 9.83665 7.96907 10.2175 7.80864C10.1394 7.83976 10.0613 7.87329 9.98314 7.90442C10.3884 7.7368 10.8132 7.62425 11.2502 7.56439C11.1648 7.57636 11.0769 7.58833 10.9914 7.59791C11.426 7.54284 11.863 7.54284 12.2952 7.59791C12.2097 7.58594 12.1218 7.57397 12.0364 7.56439C12.4734 7.62186 12.8982 7.7368 13.3035 7.90442C13.2253 7.87329 13.1472 7.83976 13.0691 7.80864C13.4524 7.96907 13.8113 8.17501 14.1409 8.42165C14.0749 8.37136 14.009 8.32107 13.9431 8.27079C14.1116 8.4001 14.2727 8.53898 14.4241 8.68744C14.7878 9.04184 15.447 9.07058 15.8059 8.68744C16.1623 8.30671 16.1941 7.71046 15.8059 7.33211C14.9709 6.51796 13.8699 5.9265 12.7029 5.73972C12.3806 5.68704 12.0535 5.64633 11.7263 5.64154C11.3918 5.63675 11.0622 5.67267 10.7302 5.71817C10.1492 5.79719 9.60472 5.97918 9.07494 6.22103C6.92406 7.2052 5.54466 9.57583 5.77904 11.8938C5.83763 12.4661 5.95238 13.0216 6.17943 13.5556C6.44066 14.171 6.77025 14.7098 7.21214 15.2199C7.9763 16.0987 9.06029 16.7452 10.2029 17.0206C11.321 17.2912 12.5491 17.2528 13.633 16.853C13.9455 16.738 14.2556 16.6063 14.5486 16.4459C14.8391 16.2854 15.1052 16.0891 15.3689 15.8879C15.8474 15.5192 16.2527 15.057 16.5896 14.559C17.8835 12.6409 17.8445 9.9446 16.4504 8.08641C16.2527 7.823 16.0452 7.56918 15.8108 7.3369C15.4494 6.98011 14.7854 6.95617 14.4289 7.3369C14.0652 7.71525 14.0383 8.30671 14.4241 8.68744Z" fill="black"/>
<path d="M14.4241 15.5022C14.7928 15.8638 15.1638 16.2278 15.5325 16.5893C16.1209 17.1664 16.7117 17.7459 17.3001 18.323C17.4368 18.4571 17.5711 18.5888 17.7078 18.7229C18.0691 19.0773 18.7332 19.1036 19.0896 18.7229C19.4485 18.3398 19.4754 17.7459 19.0896 17.3676C18.721 17.006 18.3499 16.642 17.9812 16.2804C17.3928 15.7033 16.802 15.1238 16.2136 14.5468C16.0769 14.4127 15.9427 14.281 15.8059 14.1469C15.4446 13.7925 14.7805 13.7661 14.4241 14.1469C14.0652 14.53 14.0384 15.1215 14.4241 15.5022Z" fill="black"/>
<path d="M22.605 20.3226C22.4218 20.3226 22.2412 20.3226 22.0581 20.3226C21.5649 20.3226 21.0718 20.3226 20.5786 20.3226C19.851 20.3226 19.1211 20.3226 18.3935 20.3226C17.5049 20.3226 16.6186 20.3226 15.73 20.3226C14.7583 20.3226 13.7866 20.3226 12.8149 20.3226C11.831 20.3226 10.8471 20.3226 9.8657 20.3226C8.95505 20.3226 8.04197 20.3226 7.13132 20.3226C6.36228 20.3226 5.59568 20.3226 4.82663 20.3226C4.27732 20.3226 3.73044 20.3226 3.18113 20.3226C2.92722 20.3226 2.67331 20.3226 2.41941 20.3226C2.3657 20.3226 2.31198 20.3202 2.25827 20.3154C2.34372 20.3274 2.43161 20.3394 2.51706 20.3489C2.41941 20.3346 2.32419 20.3106 2.23142 20.2771C2.30954 20.3082 2.38767 20.3418 2.46579 20.3729C2.37546 20.3346 2.29245 20.2891 2.21433 20.234C2.28025 20.2843 2.34616 20.3346 2.41208 20.3849C2.32663 20.3202 2.25339 20.2484 2.18747 20.1646C2.23874 20.2292 2.29001 20.2939 2.34128 20.3585C2.28269 20.2819 2.2363 20.2005 2.19968 20.1119C2.23142 20.1885 2.2656 20.2651 2.29734 20.3418C2.26072 20.2508 2.2363 20.1574 2.22409 20.0616C2.2363 20.1454 2.24851 20.2316 2.25827 20.3154C2.23874 20.1406 2.25095 19.9586 2.25095 19.7838C2.25095 19.4007 2.25095 19.0176 2.25095 18.6344C2.25095 17.3701 2.25095 16.1034 2.25095 14.839C2.25095 13.3041 2.25095 11.7692 2.25095 10.2366C2.25095 8.90765 2.25095 7.57866 2.25095 6.24727C2.25095 5.6175 2.24851 4.99012 2.25095 4.36034C2.25095 4.31006 2.25339 4.25977 2.25827 4.20948C2.24607 4.29329 2.23386 4.3795 2.22409 4.46331C2.23874 4.36753 2.26316 4.27414 2.29734 4.18314C2.2656 4.25977 2.23142 4.3364 2.19968 4.41302C2.23874 4.32442 2.28513 4.24301 2.34128 4.16638C2.29001 4.23104 2.23874 4.29569 2.18747 4.36034C2.25339 4.27653 2.32663 4.2047 2.41208 4.14004C2.34616 4.19033 2.28025 4.24061 2.21433 4.2909C2.29245 4.23343 2.37546 4.18793 2.46579 4.15201C2.38767 4.18314 2.30954 4.21667 2.23142 4.2478C2.32419 4.21188 2.41941 4.18793 2.51706 4.17596C2.43161 4.18793 2.34372 4.19991 2.25827 4.20948C2.47068 4.18793 2.69284 4.2023 2.90525 4.2023C3.39109 4.2023 3.87937 4.2023 4.36521 4.2023C5.0903 4.2023 5.81784 4.2023 6.54294 4.2023C7.43161 4.2023 8.32029 4.2023 9.20896 4.2023C10.1831 4.2023 11.1572 4.2023 12.1313 4.2023C13.1152 4.2023 14.0991 4.2023 15.083 4.2023C15.9985 4.2023 16.9165 4.2023 17.832 4.2023C18.6059 4.2023 19.3774 4.2023 20.1513 4.2023C20.7031 4.2023 21.2573 4.2023 21.8091 4.2023C22.0654 4.2023 22.3193 4.2023 22.5757 4.2023C22.6294 4.2023 22.6831 4.2047 22.7368 4.20948C22.6513 4.19751 22.5634 4.18554 22.478 4.17596C22.5757 4.19033 22.6709 4.21427 22.7636 4.2478C22.6855 4.21667 22.6074 4.18314 22.5293 4.15201C22.6196 4.19033 22.7026 4.23582 22.7807 4.2909C22.7148 4.24061 22.6489 4.19033 22.583 4.14004C22.6684 4.2047 22.7417 4.27653 22.8076 4.36034C22.7563 4.29569 22.7051 4.23104 22.6538 4.16638C22.7124 4.24301 22.7588 4.32442 22.7954 4.41302C22.7636 4.3364 22.7295 4.25977 22.6977 4.18314C22.7343 4.27414 22.7588 4.36753 22.771 4.46331C22.7588 4.3795 22.7466 4.29329 22.7368 4.20948C22.7563 4.38429 22.7441 4.56628 22.7441 4.74108C22.7441 5.12421 22.7441 5.50735 22.7441 5.89048C22.7441 7.15482 22.7441 8.42155 22.7441 9.68589C22.7441 11.2208 22.7441 12.7557 22.7441 14.2883C22.7441 15.6173 22.7441 16.9462 22.7441 18.2776C22.7441 18.9074 22.7466 19.5348 22.7441 20.1646C22.7441 20.2148 22.7417 20.2651 22.7368 20.3154C22.749 20.2316 22.7612 20.1454 22.771 20.0616C22.7563 20.1574 22.7319 20.2508 22.6977 20.3418C22.7295 20.2651 22.7636 20.1885 22.7954 20.1119C22.7563 20.2005 22.7099 20.2819 22.6538 20.3585C22.7051 20.2939 22.7563 20.2292 22.8076 20.1646C22.7417 20.2484 22.6684 20.3202 22.583 20.3849C22.6489 20.3346 22.7148 20.2843 22.7807 20.234C22.7026 20.2915 22.6196 20.337 22.5293 20.3729C22.6074 20.3418 22.6855 20.3082 22.7636 20.2771C22.6709 20.313 22.5757 20.337 22.478 20.3489C22.5634 20.337 22.6513 20.325 22.7368 20.3154C22.6953 20.3202 22.6489 20.3226 22.605 20.3226C22.351 20.3274 22.0947 20.428 21.914 20.6028C21.7456 20.768 21.6162 21.041 21.6284 21.2804C21.6528 21.7929 22.0581 22.2455 22.605 22.2383C23.1543 22.2311 23.667 22.0252 24.0649 21.6564C24.4604 21.29 24.6606 20.7872 24.6997 20.2627C24.7046 20.1885 24.7021 20.1143 24.7021 20.04C24.7021 19.6761 24.7021 19.3121 24.7021 18.9457C24.7021 18.3016 24.7021 17.6574 24.7021 17.0133C24.7021 16.1896 24.7021 15.3634 24.7021 14.5397C24.7021 13.6322 24.7021 12.7246 24.7021 11.8171C24.7021 10.9263 24.7021 10.0331 24.7021 9.14232C24.7021 8.36408 24.7021 7.58824 24.7021 6.81C24.7021 6.24488 24.7021 5.67976 24.7021 5.11703C24.7021 4.8632 24.7046 4.60938 24.7021 4.35555C24.6972 3.6276 24.3115 2.94994 23.6743 2.57159C23.3374 2.37045 22.9419 2.28185 22.5488 2.28185C22.2876 2.28185 22.0288 2.28185 21.7675 2.28185C21.2451 2.28185 20.7226 2.28185 20.2002 2.28185C19.48 2.28185 18.7597 2.28185 18.042 2.28185C17.1899 2.28185 16.3354 2.28185 15.4834 2.28185C14.5605 2.28185 13.6401 2.28185 12.7173 2.28185C11.7944 2.28185 10.8716 2.28185 9.94626 2.28185C9.07712 2.28185 8.21042 2.28185 7.34128 2.28185C6.59665 2.28185 5.84958 2.28185 5.10495 2.28185C4.54587 2.28185 3.98923 2.28185 3.43015 2.28185C3.12253 2.28185 2.81736 2.28185 2.50974 2.28185C2.4487 2.28185 2.38523 2.27945 2.32419 2.28424C1.78708 2.31537 1.26218 2.51891 0.886203 2.90923C0.51511 3.29476 0.302707 3.79283 0.292942 4.32442C0.288059 4.52317 0.292942 4.72432 0.292942 4.92546C0.292942 5.44748 0.292942 5.96711 0.292942 6.48912C0.292942 7.23863 0.292942 7.98813 0.292942 8.73763C0.292942 9.61644 0.292942 10.4976 0.292942 11.3765C0.292942 12.2888 0.292942 13.1987 0.292942 14.1111C0.292942 14.9564 0.292942 15.8016 0.292942 16.6445C0.292942 17.3246 0.292942 18.0047 0.292942 18.6823C0.292942 19.099 0.292942 19.5132 0.292942 19.9299C0.292942 20.0089 0.292942 20.0879 0.292942 20.1646C0.300266 20.8997 0.703098 21.6277 1.37693 21.9773C1.71384 22.1521 2.07273 22.2359 2.45114 22.2359C2.54636 22.2359 2.64402 22.2359 2.73923 22.2359C3.14206 22.2359 3.54734 22.2359 3.95017 22.2359C4.58249 22.2359 5.21482 22.2359 5.84714 22.2359C6.6406 22.2359 7.43405 22.2359 8.22507 22.2359C9.12107 22.2359 10.0171 22.2359 10.9155 22.2359C11.8481 22.2359 12.7807 22.2359 13.7134 22.2359C14.6191 22.2359 15.5224 22.2359 16.4282 22.2359C17.2412 22.2359 18.0542 22.2359 18.8672 22.2359C19.5239 22.2359 20.1806 22.2359 20.8374 22.2359C21.2744 22.2359 21.709 22.2359 22.146 22.2359C22.2973 22.2359 22.4487 22.2359 22.6025 22.2359C23.1128 22.2359 23.6035 21.7953 23.5791 21.278C23.5571 20.7632 23.1518 20.3226 22.605 20.3226Z" fill="black"/>
</svg>
