<svg width="29" height="26" viewBox="0 0 29 26" fill="none" xmlns="http://www.w3.org/2000/svg">
<path d="M17.4019 18.4619L17.4018 18.4619C17.1217 18.6123 16.8403 18.6761 16.587 18.6944C16.3821 17.7185 15.5277 16.9805 14.5009 16.9805C13.3213 16.9805 12.3656 17.9533 12.3656 19.1446C12.3656 20.3361 13.3213 21.3089 14.5009 21.3089C15.41 21.3089 16.1847 20.7304 16.4927 19.921C16.9271 19.9126 17.4358 19.8206 17.9507 19.5478C19.1074 18.9362 19.8887 17.6468 20.3021 15.7663C20.9482 12.8274 22.7316 11.6441 23.866 11.1764C24.2022 11.9218 24.9432 12.4445 25.807 12.4445C26.9866 12.4445 27.9423 11.4714 27.9423 10.2798C27.9423 9.08857 26.9866 8.11611 25.8073 8.11611C24.8371 8.11611 24.0205 8.7748 23.7602 9.67009H16.5477C16.2877 8.77478 15.4711 8.11611 14.5009 8.11611C13.5307 8.11611 12.7141 8.7748 12.4539 9.67009H5.24129C4.98128 8.77478 4.16469 8.11611 3.19452 8.11611C2.01492 8.11611 1.05923 9.08856 1.05923 10.2798C1.05923 11.4714 2.01485 12.4445 3.19452 12.4445C4.1648 12.4445 4.98132 11.7852 5.24157 10.8896H12.4538C12.7138 11.7852 13.5307 12.4445 14.5009 12.4445C15.4711 12.4445 16.2877 11.7852 16.5477 10.8896H21.9654C20.8212 11.7363 19.6414 13.1528 19.1249 15.502L19.2714 15.5342L19.1249 15.502C18.7816 17.0634 18.1907 18.0389 17.4019 18.4619ZM13.6614 9.88283L13.6614 9.88278C13.8105 9.55869 14.1308 9.33563 14.5009 9.33563C14.8709 9.33563 15.1912 9.55896 15.34 9.88273L15.3401 9.88283C15.3966 10.0057 15.4296 10.1392 15.4296 10.2798C15.4296 10.4205 15.3967 10.554 15.3403 10.677C15.1912 11.0017 14.8709 11.225 14.5009 11.225C14.1307 11.225 13.8103 11.0014 13.6612 10.677L13.5249 10.7396L13.6612 10.6771C13.6048 10.5541 13.5719 10.4205 13.5719 10.2798C13.5719 10.1392 13.6048 10.0057 13.6614 9.88283ZM24.9662 10.6746L24.9662 10.6745C24.9105 10.5527 24.8782 10.42 24.8782 10.2798C24.8782 10.2136 24.8855 10.1488 24.8986 10.0854L24.8987 10.0852C24.9873 9.65632 25.3627 9.33563 25.8076 9.33563C26.3178 9.33563 26.7365 9.7574 26.7366 10.2797C26.7361 10.8032 26.3171 11.225 25.8073 11.225C25.4362 11.225 25.1148 11.0006 24.9662 10.6746ZM3.19452 11.225C2.68436 11.225 2.26548 10.8029 2.26548 10.2798C2.26548 9.75723 2.6845 9.33563 3.19452 9.33563C3.70449 9.33563 4.12352 9.75747 4.12356 10.2798C4.1233 10.8032 3.70436 11.225 3.19452 11.225ZM15.3276 19.5648C15.1736 19.8766 14.8612 20.0894 14.5009 20.0894C13.9907 20.0894 13.5719 19.6673 13.5719 19.1446C13.5719 18.6219 13.9909 18.2 14.5009 18.2C14.9408 18.2 15.3121 18.5147 15.4056 18.9379C15.4207 19.0069 15.4296 19.0753 15.4296 19.1446C15.4296 19.2941 15.3917 19.4352 15.3276 19.5648Z" fill="black" stroke="black" stroke-width="0.3"/>
</svg>
