<svg width="32" height="32" viewBox="0 0 32 32" fill="none" xmlns="http://www.w3.org/2000/svg">
<path d="M21.6 7.19987C21.3 6.99987 21 6.99987 20.7 7.09987L5.8 12.9999H2C1.4 12.9999 1 13.3999 1 13.9999V17.9999C1 18.5999 1.4 18.9999 2 18.9999H5V25.9999C5 26.5999 5.4 26.9999 6 26.9999H10C10.6 26.9999 11 26.5999 11 25.9999V21.0999L20.6 24.9999C20.7 24.9999 20.8 25.0999 21 25.0999C21.2 25.0999 21.4 24.9999 21.6 24.8999C21.9 24.6999 22 24.3999 22 24.0999V7.99987C22 7.69987 21.8 7.39987 21.6 7.19987ZM3 14.9999H5V16.9999H3V14.9999ZM9 24.9999H7V19.4999L9 20.2999V24.9999ZM20 22.4999L7 17.2999V14.6999L20 9.49987V22.4999Z" fill="black"/>
<path d="M26.8 5.3C26.4 4.9 25.8 4.9 25.4 5.3C25 5.7 25 6.3 25.4 6.7C27.7 9.2 29 12.5 29 16C29 19.6 27.7 22.9 25.3 25.4C24.9 25.8 24.9 26.4 25.3 26.8C25.5 27 25.7 27.1 26 27.1C26.3 27.1 26.5 27 26.7 26.8C29.5 23.9 31 20.1 31 16C31 11.9 29.5 8.2 26.8 5.3Z" fill="black"/>
<path d="M24.8001 8.1999C24.4001 7.7999 23.8001 7.7999 23.4001 8.1999C23.0001 8.5999 23.0001 9.1999 23.4001 9.5999C25.1001 11.2999 26.0001 13.5999 26.0001 15.9999C26.0001 18.3999 25.1001 20.6999 23.4001 22.3999C23.0001 22.7999 23.0001 23.3999 23.4001 23.7999C23.6001 23.9999 23.9001 24.0999 24.1001 24.0999C24.3001 24.0999 24.6001 23.9999 24.8001 23.7999C26.9001 21.6999 28.0001 18.9999 28.0001 15.9999C28.0001 13.0999 26.9001 10.2999 24.8001 8.1999Z" fill="black"/>
</svg>
