<svg width="25" height="24" viewBox="0 0 25 24" fill="none" xmlns="http://www.w3.org/2000/svg">
<path d="M24.8593 12.998C24.8594 11.3893 24.5407 9.79624 23.9214 8.30998C23.3021 6.82373 22.3943 5.47337 21.2499 4.33609C21.2414 4.31527 21.226 4.29799 21.2062 4.28716C16.6015 -0.448908 8.38743 -0.448908 3.78274 4.28716C3.76294 4.29799 3.74749 4.31527 3.73899 4.33609C1.57243 6.49357 0.292379 9.37648 0.148787 12.4219C0.00519517 15.4674 1.00837 18.4567 2.96243 20.8063C3.07556 20.9382 3.22616 21.0329 3.39446 21.0782C3.45998 21.0834 3.52582 21.0834 3.59134 21.0782H8.75931C9.63431 25.0258 15.3546 25.0203 16.2296 21.0782H21.3976C21.4681 21.0779 21.5382 21.0669 21.6054 21.0455C21.7695 21.0008 21.9162 20.9079 22.0265 20.7791C23.8447 18.5877 24.8454 15.8389 24.8593 12.998ZM20.9929 19.4687H16.2351C16.1363 19.0309 15.9624 18.6134 15.721 18.2343L20.3859 13.5962C20.5382 13.4425 20.6235 13.2355 20.6235 13.0198C20.6235 12.8041 20.5382 12.597 20.3859 12.4434C20.3101 12.3671 20.2198 12.3066 20.1203 12.2652C20.0208 12.2239 19.914 12.2026 19.8062 12.2026C19.6983 12.2026 19.5916 12.2239 19.4921 12.2652C19.3925 12.3066 19.3023 12.3671 19.2265 12.4434L14.5616 17.0816C14.0425 16.7523 13.4511 16.5523 12.8377 16.4987C12.2242 16.4451 11.6068 16.5395 11.0379 16.7738C10.4689 17.0081 9.9652 17.3754 9.56948 17.8445C9.17376 18.3137 8.89772 18.8708 8.76477 19.4687H4.00696C2.74413 17.831 1.98446 15.8653 1.81946 13.8082H3.20306C3.42062 13.8082 3.62926 13.7223 3.7831 13.5693C3.93694 13.4164 4.02337 13.2089 4.02337 12.9926C4.02337 12.7763 3.93694 12.5688 3.7831 12.4159C3.62926 12.2629 3.42062 12.177 3.20306 12.177H1.82493C1.99629 9.92142 2.88935 7.77966 4.37337 6.06522L5.3304 7.01134C5.40619 7.08763 5.49645 7.14819 5.59596 7.18953C5.69547 7.23086 5.80224 7.25215 5.91009 7.25215C6.01793 7.25215 6.1247 7.23086 6.22421 7.18953C6.32372 7.14819 6.41398 7.08763 6.48977 7.01134C6.63644 6.85778 6.71776 6.6538 6.71674 6.44203C6.71572 6.23026 6.63244 6.02707 6.4843 5.87491L5.52727 4.92878C7.25038 3.44625 9.40737 2.55407 11.6796 2.38403V3.72709C11.6796 3.94341 11.766 4.15087 11.9199 4.30383C12.0737 4.45679 12.2824 4.54272 12.4999 4.54272C12.7175 4.54272 12.9261 4.45679 13.08 4.30383C13.2338 4.15087 13.3202 3.94341 13.3202 3.72709V2.38403C15.5893 2.55214 17.7441 3.44038 19.4671 4.91791L18.5156 5.87491C18.3633 6.02853 18.2779 6.23557 18.2779 6.45128C18.2779 6.66699 18.3633 6.87403 18.5156 7.02766C18.5913 7.10394 18.6816 7.1645 18.7811 7.20584C18.8806 7.24718 18.9874 7.26846 19.0952 7.26846C19.2031 7.26846 19.3099 7.24718 19.4094 7.20584C19.5089 7.1645 19.5991 7.10394 19.6749 7.02766L20.632 6.08153C22.1119 7.79374 23.0028 9.93129 23.1749 12.1824H21.7968C21.5792 12.1824 21.3706 12.2683 21.2168 12.4213C21.0629 12.5743 20.9765 12.7817 20.9765 12.998C20.9765 13.2143 21.0629 13.4218 21.2168 13.5748C21.3706 13.7277 21.5792 13.8137 21.7968 13.8137H23.1585C22.9989 15.8666 22.2469 17.8301 20.9929 19.4687ZM10.9577 21.8231C10.7552 21.6259 10.594 21.3908 10.4832 21.1314C10.3725 20.8719 10.3144 20.5933 10.3124 20.3115V20.268C10.4054 17.4296 14.5835 17.435 14.6874 20.268V20.3115C14.7366 22.1874 12.2429 23.1498 10.9577 21.8231Z" fill="black"/>
</svg>
