<svg width="27" height="27" viewBox="0 0 27 27" fill="none" xmlns="http://www.w3.org/2000/svg">
<path d="M14.2105 13.6564C16.8821 13.6564 19.0421 11.5252 19.0421 8.88923C19.0421 6.25327 16.8821 4.12207 14.2105 4.12207C11.5389 4.12207 9.37891 6.25327 9.37891 8.88923C9.37891 11.5252 11.5389 13.6564 14.2105 13.6564ZM14.2105 5.8046C15.9442 5.8046 17.3368 7.17866 17.3368 8.88923C17.3368 10.5998 15.9442 11.9739 14.2105 11.9739C12.4768 11.9739 11.0842 10.5998 11.0842 8.88923C11.0842 7.17866 12.4768 5.8046 14.2105 5.8046Z" fill="black"/>
<path d="M7.61741 23.9199H20.7764C21.1458 23.9199 21.5153 23.7517 21.7711 23.4993C22.0269 23.2189 22.169 22.8543 22.1406 22.4617C21.8279 18.0311 18.4174 14.666 14.1827 14.666C9.94794 14.666 6.53741 18.003 6.22478 22.4617C6.19636 22.8543 6.33846 23.2189 6.59425 23.4993C6.87846 23.7797 7.24794 23.9199 7.61741 23.9199ZM14.2111 16.3485C17.4227 16.3485 20.0658 18.8443 20.4353 22.2374H7.98688C8.35636 18.8723 10.9995 16.3485 14.2111 16.3485Z" fill="black"/>
</svg>
